<svg id="ehpc49wUxms1" xmlns="http://www.w3.org/2000/svg" xmlns:xlink="http://www.w3.org/1999/xlink" viewBox="0 0 664.67004 498.94654" shape-rendering="geometricPrecision" text-rendering="geometricPrecision">
<style><![CDATA[

.stop-animation > .animated, .stop-animation > * > .animated {
  animation-play-state: paused !important;
}

#RECTANGLES {
    animation: RECTANGLES-SCALE 7000ms linear 1 normal forwards;
}
            @keyframes RECTANGLES-SCALE {
              0% {
                transform: translate(402.595614px, 245.682795px)
                  rotate(-2.997637deg) skewX(-8.327121deg) skewY(0deg)
                  scale(0, 0);
              }
              5% {
                transform: translate(402.595614px, 245.682795px)
                  rotate(-2.997637deg) skewX(-8.327121deg) skewY(0deg)
                  scale(1.000004, 1.000004);
              }
              100% {
                transform: translate(402.595614px, 245.682795px)
                  rotate(-2.997637deg) skewX(-8.327121deg) skewY(0deg)
                  scale(1.000004, 1.000004);
              }
            }

            #POLE1 {
              animation: POLE1__ts 7000ms ease-out infinite normal
                forwards;
            }
            @keyframes POLE1__ts {
              0% {
                transform: translate(321.55643px, 374.43231px) scale(1, 0);
              }
              8.75% {
                transform: translate(321.55643px, 374.43231px) scale(1, 0);
              }
              12.5% {
                transform: translate(321.55643px, 374.43231px) scale(1, 1);
              }
              90.875% {
                transform: translate(321.55643px, 374.43231px) scale(1, 1);
              }
              93.375% {
                transform: translate(321.55643px, 374.43231px) scale(1, 0);
              }
         
            }
          
            #GOAL1 {
              animation: GOAL1__ts 7000ms linear infinite normal forwards;
            }
            @keyframes GOAL1__ts {
              0% {
                transform: translate(321.876007px, 201.042999px) scale(0, 0);
              }
              11.25% {
                transform: translate(321.876007px, 201.042999px) scale(0, 0);
              }
              14.125% {
                transform: translate(321.876007px, 201.042999px) scale(1, 1);
              }
              88.125% {
                transform: translate(321.876007px, 201.042999px) scale(1, 1);
              }
              90.875% {
                transform: translate(321.876007px, 201.042999px) scale(0, 0);
              }
          
            }



            #POLE2 {
              animation: POLE2__ts 7000ms ease-out infinite normal
                forwards;
            }
            @keyframes POLE2__ts {
              0% {
                transform: translate(393.381653px, 393.042266px) scale(1, 0);
              }
              18.75% {
                transform: translate(393.381653px, 393.042266px) scale(1, 0);
              }
              22.5% {
                transform: translate(393.381653px, 393.042266px) scale(1, 1);
              }
              62.375% {
                transform: translate(393.381653px, 393.042266px) scale(1, 1);
              }
              80.5% {
                transform: translate(393.381653px, 393.042266px) scale(1, 1);
              }

              83% {
                transform: translate(393.381653px, 393.042266px) scale(1, 0);
              }
      
            }

            #GOAL2 {
              animation: GOAL2__ts 7000ms linear infinite normal
                forwards;
            }
            @keyframes GOAL2__ts {
              0% {
                transform: translate(392.876007px, 253.042999px) scale(0, 0);
              }
              21.625% {
                transform: translate(392.876007px, 253.042999px) scale(0, 0);
              }
              24.5% {
                transform: translate(392.876007px, 253.042999px) scale(1, 1);
              }
              78% {
                transform: translate(392.876007px, 253.042999px) scale(1, 1);
              }
              80.5% {
                transform: translate(392.876007px, 253.042999px) scale(0, 0);
              }
         
            }

            

            #POLE3 {
              animation: POLE3__ts 7000ms ease-out infinite normal forwards;
            }

            @keyframes POLE3__ts {
              0% {
                transform: translate(463.858696px, 374.432312px) scale(1, 0);
              }
              30% {
                transform: translate(463.858696px, 374.432312px) scale(1, 0);
              }
              33.75% {
                transform: translate(463.858696px, 374.432312px) scale(1, 1);
              }
              70.5% {
                transform: translate(463.858696px, 374.432312px) scale(1, 1);
              }
              73.25% {
                transform: translate(463.858696px, 374.432312px) scale(1, 0);
              }
           
            }

            

            #GOAL3 {
              animation: GOAL3__ts 7000ms linear infinite normal
                forwards;
            }
            @keyframes GOAL3__ts {
              0% {
                transform: translate(462.876007px, 197.042999px) scale(0, 0);
              }
              32.5% {
                transform: translate(462.876007px, 197.042999px) scale(0, 0);
              }
              35.375% {
                transform: translate(462.876007px, 197.042999px) scale(1, 1);
              }
              68% {
                transform: translate(462.876007px, 197.042999px) scale(1, 1);
              }
              70.5% {
                transform: translate(462.876007px, 197.042999px) scale(0, 0);
              }
           
            }

]]></style>
<g class="animated" id="RECTANGLES" transform="translate(402.595614,245.682795) rotate(-2.997637) skewX(-8.327121) skewY(0) scale(0,0)"><g transform="translate(-410.830154,-266.277168)"><rect width="372.245" height="26.31" rx="0" ry="0" transform="matrix(.829653-.55828-.096274 1.27011 255.176081 397.300831)" fill="#88aaeb"/><rect width="372.245" height="26.31" rx="0" ry="0" transform="matrix(.829653-.55828-.096274 1.27011 257.616081 353.968831)" fill="#88aaeb"/><rect width="372.245" height="26.31" rx="0" ry="0" transform="matrix(.829653-.55828-.096274 1.27011 260.183081 309.653831)" fill="#88aaeb"/></g></g><path d="M875.00379,645.30923l.99775-22.43416c10.401064-5.559659,22.002051-8.496324,33.79563-8.555-16.23147,13.27042-14.203,38.85123-25.20758,56.69681-7.038869,11.221263-18.799065,18.632243-31.95921,20.13989l-13.58306,8.31648c-3.771998-21.028184,1.852927-42.653589,15.39284-59.17882c3.798669-4.54365,8.154402-8.590847,12.9644-12.04607c3.25318,8.57798,7.59923,17.06087,7.59923,17.06087Z" transform="translate(-267.665-200.527)" fill="#ccc"/><path d="M408.67749,445.86513c-1.816813-1.65801-2.805918-4.035596-2.701167-6.493s1.292599-4.742194,3.243917-6.23958l-9.30563-28.03073l14.82235,3.9821l6.56436,26.008c2.3498,3.522156,1.693872,8.245176-1.526795,10.993711s-7.988075,2.653823-11.097035-.220461Z" transform="translate(-267.665-200.527)" fill="#a0616a"/><path d="M435.5414,293.5693c2.45943,1.40992,17.0108-2.08359,19.85261-1.08978-1.56872,9.57154,6.95159,5.97975-2.30079,18.54966s-27.88782,50.25794-32.12122,64.34367-.04338,33.93629-.67739,40.61207c-.306383,3.867956-.287269,7.754814.05714,11.61957-4.999-.06317-9.92622.97419-15.00333.3116-5.41435-15.32062-9.05482-37.128-11.52681-49.18028s-2.56241-6.9554-1.42864-12.98189s1.4083-1.64719.21729-7.41253s3.62568-13.00914,8.07614-17.13943c1.91886-5.51918,4.39873-10.66533,6.29842-16.12687c13.92118-12.14421,14.83647-19.15948,28.55658-31.50579Z" transform="translate(-267.665-200.527)" fill="#bfdeed"/><polygon points="572.34,483.401 560.041,483.401 554.19,435.961 572.343,435.961 572.34,483.401" fill="#ffb6b6"/><path d="M843.14211,695.85028l-39.658-.00147v-.50161c.000591-8.524787,6.911213-15.435311,15.436-15.43578h.001l7.24406-5.49573l13.51582,5.49657l3.4619.00014Z" transform="translate(-267.665-200.527)" fill="#2f2e41"/><polygon points="515.2,483.401 502.901,483.401 497.05,435.961 515.202,435.961 515.2,483.401" fill="#ffb6b6"/><path d="M786.00183,695.85028l-39.658-.00147v-.50161c.000585-8.524789,6.911211-15.435316,15.436-15.43578h.001l7.24407-5.49573l13.51581,5.49657l3.46191.00014Z" transform="translate(-267.665-200.527)" fill="#2f2e41"/><path d="M777.5414,424.5693l80,2c15.19373,8.25248,15.42444,26.11377,10.44617,47.32025c0,0,1.68059,12.60446-1.68061,15.96566s-5.04179,3.36119-3.36119,9.24328-7.19877,15.48927-6.12028,16.56776s3.59939,6.96058,3.59939,6.96058l-8.403,47.897c0,0-5.88209,83.18951-7.56269,84.87011s-3.36119,0-1.68059,4.20149s3.36119,2.52089,1.68059,4.20149c-1.488683,1.605104-2.891151,3.288066-4.20149,5.04179h-20.316c0,0-1.53173-8.403-1.53173-9.24328s-1.6806-5.88209-1.6806-6.72239s1.48541-2.3257,1.48541-2.3257c.513298-1.708175.860078-3.462016,1.03549-5.237c0-1.6806,5.04179-66.38355,5.04179-66.38355L814.20848,494.897l-24.36865,82.34921c0,0,0,72.26564-1.68059,73.94624s-1.6806.84029-.8403,4.20149s4.20149,2.52089,1.6806,5.04179-3.3612-1.6806-2.5209,2.52089l.8403,4.20149-25.20894.3606c0,0-3.3612-7.083-1.6806-9.60388s1.57976-1.83278-.47057-5.95818-2.89062-4.96569-2.05032-5.806.84029-5.30976.84029-5.30976l4.20149-80.40065c0,0,.8403-84.87011.8403-87.391.063349-1.297156-.175602-2.591288-.698-3.78029v-3.42179l3.21894-12.12477Z" transform="translate(-267.665-200.527)" fill="#2f2e41"/><circle r="24.8564" transform="translate(557.934 32.8387)" fill="#ffb6b6"/><path d="M813.17027,274.6503c-5.355,3.18356-8.55835,9.03292-10.39722,14.98516-3.404424,11.019863-5.453656,22.413436-6.10241,33.92893l-1.94226,34.47531-24.05463,73.40765c20.84735,17.64,99.20941,4.00907,99.20941,4.00907s2.40546-.80179,0-3.20728-4.74721-.27435-2.34176-2.67984.74722.27436-.0546-2.13113s0-.80179.80182-1.60364-6.20728-8.01825-6.20728-8.01825l6.41455-42.13666l8.01819-84.993c-9.62188-12.02731-28.97268-19.11734-28.97268-19.11734l-5-9-25,2Z" transform="translate(-267.665-200.527)" fill="#3f3d56"/><path d="M809.76113,218.7778c.961763.007507,1.918962.133114,2.8501.374c1.835663.4413,3.699895.75391,5.5791.93555c11.841513,1.114048,21.394917,10.163834,23.148,21.92773c1.44434-1.25927,4.731-3.57568,7.4248-1.42285v0c.041.03418.065.05176.15967.00684c1.78906-.84863,4.96485-11.29492,5.061-20.49268.05078-4.88183-.71778-11.11572-4.666-13.08984l-.208-.104-.05468-.22608c-.26368-1.09814-3.21094-2.97266-8.333-4.43164-9.3086-2.65137-22.91016-3.03467-30.72363,4.56641-.59131,2.5625-2.78907,3.26465-4.73243,3.88623-2.15185.688-4.01025,1.28174-4.30322,3.92138-.244671,3.756427-.226888,7.525349.05322,11.2793.729158-2.297089,2.160428-4.307627,4.09229-5.74853c1.373526-.924726,2.997165-1.406927,4.65278-1.38182Z" transform="translate(-267.665-200.527)" fill="#2f2e41"/><path d="M763.496,356.12054l40.60316-26.00339-20.4505-27.18527-20.19359,24.84-62.91881,3.85894c-4.612973-4.55995-12.015738-4.62511-16.708264-.147068s-4.973525,11.87576-.634222,16.696871s11.72568,5.31771,16.671276,1.120837Z" transform="translate(-267.665-200.527)" fill="#ffb6b6"/><path d="M841.7844,293.82161c2.35656,14.26167-42.14559,41.49535-42.14559,41.49535-.00069-3.34743-26.56182,21.9235-27.76073,19.14727-3.40742-7.89031-5.80314-26.57884-10.56448-29.57012-2.72294-1.71066,16.39925-17.78078,16.39925-17.78078s10.00953-10.08383,23.14493-22.80306c7.412423-7.448871,18.124705-10.580107,28.38206-8.29617s10.18797,3.5459,12.54456,17.80751Z" transform="translate(-267.665-200.527)" fill="#3f3d56"/><path style="isolation:isolate" d="M796.5414,457.5693c.017566,15.262028-2.538256,30.417786-7.56,44.83-.23.67-.47,1.33-.71,2-10.279774,27.917469-29.399968,51.711488-54.45,67.76-1.71,1.1-3.44,2.15-5.2,3.17-20.013685,11.601903-42.669222,17.875214-65.8,18.22-.76.01-1.52.02-2.28.02-.98,0-1.95-.01-2.92-.03-23.161889-.460634-45.817961-6.858031-65.8-18.57995q-2.64-1.545-5.2-3.21c-57.541811-37.301435-78.353872-111.581253-48.57-173.35.32-.67.65-1.33.99-2c23.121147-45.88455,70.119271-74.829964,121.5-74.829964s98.378853,28.945414,121.5,74.829964c.34.67.67,1.33.99,2c8.922183,18.447095,13.541525,38.678496,13.51,59.16995Z" transform="translate(-267.977679-200.527)" fill="#f2f2f2"/><path d="M754.46139,502.39926v2h12.18v-2Zm-24.36,0v2h12.18v-2Zm-24.36,0v2h12.18v-2Zm-24.36,0v2h12.18v-2Zm-24.36,0v2h12.18v-2Zm-24.36,0v2h12.18v-2Zm-24.36,0v2h12.18v-2Zm-24.35,0v2h12.17v-2Zm-24.36,0v2h12.18v-2Zm-24.36,0v2h12.18v-2Zm253.75,0h-10.16v2h9.45Z" transform="translate(-267.665-200.527)" fill="#e6e6e6"/><path d="M778.82143,488.39926v2h12.18v-2Zm-24.36,0v2h12.18v-2Zm-24.36,0v2h12.18v-2Zm-24.36,0v2h12.18v-2Zm-24.36,0v2h12.18v-2Zm-24.36,0v2h12.18v-2Zm-24.36,0v2h12.18v-2Zm-24.36,0v2h12.18v-2Zm-24.35,0v2h12.17v-2Zm-24.36,0v2h12.18v-2Zm-24.36,0v2h12.18v-2Z" transform="translate(-267.665-200.527)" fill="#e6e6e6"/><path d="M778.82143,459.39926v2h12.18v-2Zm-24.36,0v2h12.18v-2Zm-24.36,0v2h12.18v-2Zm-24.36,0v2h12.18v-2Zm-24.36,0v2h12.18v-2Zm-24.36,0v2h12.18v-2Zm-24.36,0v2h12.18v-2Zm-24.36,0v2h12.18v-2Zm-24.35,0v2h12.17v-2Zm-24.36,0v2h12.18v-2Zm-24.36,0v2h12.18v-2Z" transform="translate(-267.665-200.527)" fill="#e6e6e6"/><path d="M778.82143,439.39926v2h12.18v-2Zm-24.36,0v2h12.18v-2Zm-24.36,0v2h12.18v-2Zm-24.36,0v2h12.18v-2Zm-24.36,0v2h12.18v-2Zm-24.36,0v2h12.18v-2Zm-24.36,0v2h12.18v-2Zm-24.36,0v2h12.18v-2Zm-24.35,0v2h12.17v-2Zm-24.36,0v2h12.18v-2Zm-24.36,0v2h12.18v-2Z" transform="translate(-267.665-200.527)" fill="#e6e6e6"/><path d="M337.01856,633.18752L335.035,605.599c-12.993449-6.495265-27.376024-9.720575-41.89886-9.39587c20.43166,15.79292,18.79511,47.35761,32.94511,68.95962c9.044317,13.579302,23.773534,22.308272,40.02775,23.72163l17.004,9.78252c3.936542-26.017957-3.716997-52.454974-20.94423-72.346-4.830051-5.466516-10.329273-10.303029-16.36788-14.39539-3.71675,10.67117-8.78233,21.26201-8.78233,21.26201Z" transform="translate(-267.665-200.527)" fill="#ccc"/><path d="M782.0414,396.39926h-3.22v2h4.21c-.32001-.66998-.64997-1.32996-.99-2Zm-27.58,0v2h12.18v-2Zm-24.36,0v2h12.18v-2Zm-24.36,0v2h12.18v-2Zm-24.36,0v2h12.18v-2Zm-24.36,0v2h12.18v-2Zm-24.36,0v2h12.18v-2Zm-24.36,0v2h12.18v-2Zm-24.35,0v2h12.17v-2Zm-24.36,0v2h12.18v-2Zm-20.55,0c-.34.67-.67,1.33-.99,2h9.36v-2Z" transform="translate(-267.665-200.527)" fill="#e6e6e6"/><g transform="translate(.000017 0.000031)"><g class="animated" id="POLE3" transform="translate(463.858696,374.432312) scale(1,0)"><path d="M733.82143,403.13931v169.02c-1.71,1.1-3.44,2.15-5.2,3.17v-172.19Z" transform="translate(-731.523684,-574.95931)" fill="#3f3d56"/></g><g class="animated" id="POLE2" transform="translate(393.381653,393.042266) scale(1,0)"><path d="M662.82143,459.13931v134.41c-.76.01-1.52.02-2.28.02-.98,0-1.95-.01-2.92-.03v-134.4Z" transform="translate(-660.221429,-593.569307)" fill="#3f3d56"/></g><g class="animated" id="POLE1" transform="translate(321.55643,374.43231) scale(1,0)"><path d="M591.82143,403.13931v171.82q-2.64-1.545-5.2-3.21v-168.61Z" transform="translate(-589.22143,-574.959308)" fill="#3f3d56"/></g></g><g class="animated" id="GOAL3" transform="translate(462.876007,197.042999) scale(0,0)"><g transform="translate(-462.876007,-197.042999)"><circle r="19" transform="translate(462.876 197.043)" fill="#bfdeed"/><path d="M740.29488,389.65072c-.593697-.566377-1.527633-.566377-2.12133,0-4.031549,3.215352-7.652628,6.91402-10.7818,11.01282q-1.15237-2.22959-2.30457-4.45923c-.88672-1.71569-3.47638-.20007-2.59039,1.51416q1.68538,3.26121,3.37079,6.52234c.275623.451374.766352.726704,1.295225.726704s1.019602-.27533,1.295225-.726704c3.334565-4.696378,7.320085-8.894661,11.83685-12.46875.580847-.587832.580847-1.533508,0-2.12134Z" transform="translate(-267.665-200.527)" fill="#fff"/></g></g><g class="animated" id="GOAL2" transform="translate(392.876007,253.042999) scale(0,0)"><g transform="translate(-392.876007,-253.042999)"><circle r="19" transform="translate(392.876 253.043)" fill="#bfdeed"/><path d="M670.29488,445.65072c-.593697-.566377-1.527633-.566377-2.12133,0-4.031549,3.215352-7.652628,6.91402-10.7818,11.01282q-1.15237-2.22959-2.30457-4.45923c-.88672-1.71569-3.47638-.20007-2.59039,1.51416q1.68538,3.26121,3.37079,6.52234c.275623.451374.766352.726704,1.295225.726704s1.019602-.27533,1.295225-.726704c3.334565-4.696378,7.320085-8.894661,11.83685-12.46875.580847-.587832.580847-1.533508,0-2.12134Z" transform="translate(-267.665-200.527)" fill="#fff"/></g></g><g class="animated" id="GOAL1" transform="translate(321.876007,201.042999) scale(0,0)"><g transform="translate(-321.876007,-201.042999)"><circle r="19" transform="translate(321.876 201.043)" fill="#bfdeed"/><path d="M599.29488,393.65072c-.593697-.566377-1.527633-.566377-2.12133,0-4.031549,3.215352-7.652628,6.91402-10.7818,11.01282q-1.15237-2.22959-2.30457-4.45923c-.88672-1.71569-3.47638-.20007-2.59039,1.51416q1.68538,3.26121,3.37079,6.52234c.275623.451374.766352.726704,1.295225.726704s1.019602-.27533,1.295225-.726704c3.334565-4.696378,7.320085-8.894661,11.83685-12.46875.580847-.587832.580847-1.533508,0-2.12134Z" transform="translate(-267.665-200.527)" fill="#fff"/></g></g><path d="M862.01867,388.0578l12.508-46.56546-33.42489-6.32734l1.79743,31.96213-43.91756,45.22075c-6.480939-.264941-11.997713,4.671709-12.451524,11.142166s4.319872,12.128837,10.774345,12.771133s12.249646-3.96436,13.079879-10.397359Z" transform="translate(-267.665-200.527)" fill="#ffb6b6"/><path d="M877.94707,289.28275c11.34563,8.95685-3.21651,59.05733-3.21651,59.05733-2.25459-2.4743-4.87455,34.09412-7.63034,32.849-7.83224-3.53886-22.18775-15.74214-27.72207-14.74744-3.165.56886.15092-24.1882.15092-24.1882s.6099-14.19515,1.75615-32.44354c.464155-10.498299,6.275291-20.026592,15.39653-25.24509s9.91967-4.23889,21.26532,4.71794Z" transform="translate(-267.665-200.527)" fill="#3f3d56"/><polygon points="218.409,193.301 232.16,254.667 144.042,249.186 168.004,188.918 218.409,193.301" fill="#a0616a"/><polygon points="203.736,476.529 213.634,476.528 218.343,438.349 203.734,438.349 203.736,476.529" fill="#a0616a"/><path d="M468.04867,672.17257l15.6473-.93393v6.704l14.87632,10.27412c1.508203,1.041331,2.163993,2.942444,1.618571,4.692175s-2.165311,2.941474-3.998081,2.941365h-18.6287l-3.21093-6.63127-1.25371,6.63127h-7.02376Z" transform="translate(-267.665-200.527)" fill="#2f2e41"/><polygon points="110.182,471.604 119.856,473.702 132.552,437.389 118.275,434.292 110.182,471.604" fill="#a0616a"/><path d="M375.6068,666.64844l15.48961,2.40458-1.42127,6.55159l12.36,13.19442c1.253148,1.337406,1.490986,3.33433.587013,4.928654s-2.73969,2.415553-4.530773,2.026896l-18.20524-3.94935-1.7321-7.16126-2.63106,6.21474-6.86411-1.48907Z" transform="translate(-267.665-200.527)" fill="#2f2e41"/><path d="M502.07484,506.50909c-6.94674,38.17812-8.68342,54.6622-8.68342,54.6622s5.21008,6.07352,1.73668,9.54692s0,10.4105,0,10.4105l-7.81026,84.16655-6.28706-1.01878-15.14512-2.43526-5.46234-.88287l3.47341-78.95648c0,0-3.47341-6.94674-1.73668-8.68347s-1.73673-12.14711-1.73673-12.14711l-4.33685-82.42988-26.90417,90.24013c0,0,2.60983,3.47341,0,6.07359-2.60024,2.60018-7.8006,15.62051-7.8006,15.62051l-15.99891,55.98168-1.35834,4.754-8.34386-1.562-9.08124-1.7076-1.66881-.31041-2.96887-.56275-1.9113-.359-.65009-.11643-3.1435-.59188.95085-4.22043.49476-2.22178L391.237,579.64425l.31048-1.38741.3299-1.465c0,0-1.73673-4.33685.86345-6.94675c1.54427-1.614708,2.193903-3.886563,1.73673-6.07358-.085141-.090754-.162998-.188075-.23285-.29106-.307112-.421647-.518979-.904968-.62095-1.41654-.23284-1.08664-.02914-2.60989,1.727-4.366.494535-.525451.909652-1.120333,1.2322-1.7658c2.639-4.99666,3.96822-15.58173,3.96822-15.58173s2.34792-83.83664,10.032-96.64355c.40753-.66946,8.5649-13.52147,8.9918-13.78345c8.67376-5.20036,76.25033,1.98256,76.25033,1.98256s4.093,10.99559,4.27735,12.14044c.99934,6.43253,7.86142,30.07678,1.97218,62.46271Z" transform="translate(-267.665-200.527)" fill="#2f2e41"/><path d="M481.5414,304.5693c0,0,1.46218-7.59015-12.5884-21.64073-7.43854-2.47951-20.32694-1.03436-24.79513,0-20.66261,27.27465-16.963,22.46222-22.34155,37.70145-1.39473,3.95172-2.09209,7.74848-1.47222,10.84787c2.47952,12.39757,6.50494,76.03726,5.67844,79.34327s-6.612,7.43854-.8265,7.43854s80.395-1.306,78.742-3.78553-22.39664-109.90487-22.39664-109.90487Z" transform="translate(-267.665-200.527)" fill="#bfdeed"/><path d="M570.15123,405.41465c-2.293686.888161-4.862967.71474-7.016494-.4736s-3.670081-3.269526-4.141586-5.68355l-29.24149-4.1535L539.919,383.60676l26.20946,5.70693c4.200156-.535128,8.136742,2.155828,9.163081,6.263662s-1.181989,8.334091-5.140261,9.837338Z" transform="translate(-267.665-200.527)" fill="#a0616a"/><path d="M446.43755,299.68364c2.35779-1.574,5.03574-2.31316,7.19129-4.41486c7.87094,5.66777,8.45013-3.56051,15.58322,10.32215s32.57583,47.354,43.30157,57.41824s30.36478,15.15436,36.05939,18.69545c3.326618,1.997141,6.815143,3.711269,10.42877,5.1243-2.28314,4.44757-3.549,9.32113-6.40362,13.57168-16.12857-1.97632-37.27484-8.43011-49.1666-11.58505s-7.36868-.8038-12.25937-4.50314-.8475-1.99457-6.53985-3.49616-10.03254-9.04056-11.74823-14.86484c-4.0868-4.1763-7.58973-8.68873-11.63346-12.8222-4.67242-17.87314-9.87018-35.66243-14.81311-53.44557Z" transform="translate(-267.665-200.527)" fill="#bfdeed"/><circle r="23.9328" transform="translate(197.237 47.8905)" fill="#a0616a"/><path d="M480.89182,292.16518c-1.1345-1.62-9.6158-17.68334-12.13691-23.75792-.259215,1.315469-.422853,2.647979-.48963,3.98708l-.02509.499-.49547.06419c-.74525.09513-18.34747,2.23165-27.50807-8.15566-5.42738-6.15278-6.65817-15.38166-3.66319-27.4357-.544751-.10693-1.066701-.307971-1.54243-.5941-1.603358-1.109728-2.636256-2.869585-2.8234-4.81052l-.50714.136c-16.29721-7.93032-2.25686-31.12918,12.62888-19.59518c1.305662-.29175,2.66682-.213536,3.93047.22585c2.482928,1.010161,4.211437,3.301158,4.50122,5.966c7.69113-4.04545,17.87009-3.38716,23.13465-.35191c2.20422,1.27106,3.47,2.87185,3.69471,4.65763c6.21814.34723,12.90607,6.40431,12.90607,14.986v.5976h-.59759c-5.097616.108518-9.719683,3.020009-12.019,7.5709-3.114858,5.627495-2.907595,12.506853.5404,17.93662c3.722019,5.711922,4.9804,12.684578,3.48986,19.33723l-2.24565,9.8399Z" transform="translate(-267.665-200.527)" fill="#2f2e41"/><path d="M550.335,696.04778c.000941.315906-.124139.619143-.347525.842518s-.526629.348439-.842535.347482h-280.28994c-.425146,0-.817997-.226813-1.03057-.595s-.212573-.821813,0-1.19.605424-.595,1.03057-.595h280.29c.315892-.000931.619114.124145.842484.347516s.348447.526592.347516.842484Z" transform="translate(-267.665-200.527)" fill="#ccc"/><path d="M932.335,696.04778c.000941.315906-.124139.619143-.347525.842518s-.526629.348439-.842535.347482h-280.28994c-.425146,0-.817997-.226813-1.03057-.595s-.212573-.821813,0-1.19.605424-.595,1.03057-.595h280.29c.315892-.000931.619114.124145.842484.347516s.348447.526592.347516.842484Z" transform="translate(-267.665-200.527)" fill="#ccc"/></svg>
