<svg id="header-image" viewBox="0 -2 835.579 700.385" xmlns="http://www.w3.org/2000/svg" xmlns:bx="https://boxy-svg.com">
  <defs>
    <style bx:fonts="Montserrat">@import url(https://fonts.googleapis.com/css2?family=Montserrat%3Aital%2Cwght%400%2C100%3B0%2C200%3B0%2C300%3B0%2C400%3B0%2C500%3B0%2C600%3B0%2C700%3B0%2C800%3B0%2C900%3B1%2C100%3B1%2C200%3B1%2C300%3B1%2C400%3B1%2C500%3B1%2C600%3B1%2C700%3B1%2C800%3B1%2C900&amp;display=swap);</style>
  </defs>
  <path style="fill: rgb(245, 235, 224);" d="M 78.173 48.958 L 78.677 46.379 L 79.485 42.223 L 83.677 36.604 L 88.849 34.503 L 90.295 34.704 L 629.158 34.714 L 633.396 37.828 L 636.708 42.978 L 637.951 48.387 L 637.977 287.91 L 636.825 292.738 L 633.261 298.089 L 626.624 301.012 L 88.898 300.756 L 84.53 299.097 L 80.482 294.96 L 78.01 288.213 L 78.173 48.958 Z"></path>
  <g transform="matrix(1.088147, 0, 0, 1.026334, -133.577148, 66.577339)">
    <text style="fill:#2f2e41; font-family: Montserrat; font-size: 27.8px; font-weight: 600; letter-spacing: 2.2px; paint-order: fill; stroke-miterlimit: 0; stroke-width: 0.945859px; white-space: pre; " x="345.204" y="19.652">Piję z Głową!</text>
    <g style="" transform="matrix(1.634902, 0, 0, 0.956496, -139.583847, 8.354567)">
      <path d="M 376.33 51.026 L 223.228 51.026 C 221.366 51.026 219.851 49.42 219.851 47.446 C 219.851 45.472 221.366 43.867 223.228 43.867 L 376.33 43.867 C 378.192 43.867 379.706 45.472 379.706 47.446 C 379.706 49.42 378.192 51.026 376.33 51.026 Z" style="fill: rgb(255, 255, 255);"></path>
      <path d="M 350.879 71.026 L 222.679 71.026 C 221.12 71.026 219.851 69.42 219.851 67.446 C 219.851 65.472 221.12 63.867 222.679 63.867 L 350.879 63.867 C 352.438 63.867 353.706 65.472 353.706 67.446 C 353.706 69.42 352.438 71.026 350.879 71.026 Z" style="fill: rgb(255, 255, 255);"></path>
      <path d="M 362.073 91.026 L 222.92 91.026 C 221.228 91.026 219.851 89.42 219.851 87.446 C 219.851 85.472 221.228 83.867 222.92 83.867 L 362.073 83.867 C 363.765 83.867 365.141 85.472 365.141 87.446 C 365.141 89.42 363.765 91.026 362.073 91.026 Z" style="fill: rgb(255, 255, 255);"></path>
      <path d="M 322.066 111.026 L 222.057 111.026 C 220.841 111.026 219.851 109.42 219.851 107.446 C 219.851 105.472 220.841 103.867 222.057 103.867 L 322.066 103.867 C 323.282 103.867 324.271 105.472 324.271 107.446 C 324.271 109.42 323.282 111.026 322.066 111.026 Z" style="fill: rgb(255, 255, 255);"></path>
      <path d="M 278.384 131.026 L 221.115 131.026 C 220.418 131.026 219.851 129.42 219.851 127.446 C 219.851 125.472 220.418 123.867 221.115 123.867 L 278.384 123.867 C 279.081 123.867 279.647 125.472 279.647 127.446 C 279.647 129.42 279.081 131.026 278.384 131.026 Z" style="fill: rgb(255, 255, 255);"></path>
    </g>
  </g>
  <g transform="matrix(0.96241, 0, 0, 0.927129, -118.538925, 89.80262)" style="">
    <path d="M 633.388 221.662 C 623.748 216.544 615.834 205.744 615.61 193.506 C 624.742 201.647 636.076 205.799 647.607 205.23 C 652.053 204.991 656.977 204.192 660.547 207.258 C 662.769 209.165 664.009 212.294 664.455 215.446 C 664.9 218.599 664.639 221.821 664.376 225.001 L 664.635 225.741 C 654.085 227.076 643.03 226.781 633.388 221.662 Z" style="fill: rgb(184, 208, 188);"></path>
    <path d="M 615.83 193.466 C 620.304 202.185 627.048 209.056 635.101 213.104 C 636.822 214.01 638.655 214.599 640.534 214.847 C 642.372 215.02 644.216 214.623 645.875 213.697 C 647.437 212.869 648.952 211.813 650.661 211.437 C 652.436 211.079 654.259 211.612 655.673 212.901 C 657.45 214.436 658.642 216.617 659.744 218.797 C 660.967 221.216 662.205 223.752 664.271 225.347 C 664.521 225.541 664.247 225.977 663.996 225.784 C 660.402 223.009 659.374 217.751 656.39 214.33 C 654.997 212.734 653.18 211.611 651.168 211.892 C 649.41 212.138 647.846 213.225 646.271 214.079 C 644.664 215.01 642.884 215.474 641.085 215.428 C 639.201 215.291 637.351 214.785 635.614 213.932 C 631.677 212.084 628.017 209.533 624.767 206.373 C 621.041 202.79 617.873 198.499 615.401 193.684 C 615.249 193.385 615.677 193.169 615.83 193.466 Z" style="fill: rgb(255, 255, 255);"></path>
    <path d="M 632.441 211.976 C 630.846 215.005 627.584 216.255 624.736 214.929 C 624.457 214.798 624.62 214.292 624.9 214.423 C 627.552 215.664 630.592 214.491 632.063 211.66 C 632.218 211.362 632.596 211.681 632.441 211.976 Z" style="" fill="#fff"></path>
    <path d="M 645.13 214.237 C 644.436 210.823 642.65 207.837 640.131 205.873 C 639.881 205.679 640.156 205.242 640.406 205.436 C 643.024 207.485 644.876 210.597 645.593 214.151 C 645.661 214.49 645.199 214.574 645.13 214.237 Z" style="" fill="#fff"></path>
    <path d="M 621.595 202.468 C 622.409 201.461 622.731 200.049 622.451 198.711 C 622.378 198.373 622.841 198.29 622.912 198.625 C 623.216 200.105 622.865 201.663 621.973 202.784 C 621.895 202.9 621.753 202.927 621.647 202.844 C 621.543 202.756 621.519 202.588 621.595 202.468 Z" style="" fill="#fff"></path>
    <path d="M 642.81 166.421 C 642.86 166.631 642.91 166.84 642.963 167.05 C 643.649 169.862 644.53 172.604 645.601 175.251 C 645.68 175.457 645.764 175.664 645.849 175.867 C 648.486 182.211 652.122 187.936 656.57 192.749 C 658.342 194.663 660.238 196.418 662.241 198 C 665.007 200.184 668.156 202.298 670.079 205.32 C 670.282 205.633 670.469 205.96 670.637 206.299 L 665.397 225.32 C 665.366 225.356 665.34 225.394 665.309 225.43 L 665.13 226.201 C 665.022 226.128 664.911 226.049 664.802 225.976 C 664.739 225.934 664.678 225.888 664.615 225.845 C 664.573 225.816 664.532 225.786 664.493 225.762 C 664.479 225.753 664.465 225.743 664.455 225.734 C 664.416 225.71 664.382 225.684 664.347 225.661 C 663.726 225.223 663.106 224.779 662.489 224.33 C 662.485 224.329 662.485 224.329 662.482 224.323 C 657.783 220.886 653.292 216.966 649.459 212.383 C 649.344 212.246 649.224 212.107 649.112 211.96 C 647.394 209.884 645.826 207.649 644.424 205.278 C 643.66 203.977 642.954 202.632 642.307 201.249 C 640.644 197.67 639.478 193.812 638.854 189.816 C 637.611 181.849 638.59 173.513 642.506 166.921 C 642.606 166.752 642.705 166.588 642.81 166.421 Z" style="fill: rgb(184, 208, 188);"></path>
    <path d="M 643.007 166.54 C 642.029 176.61 643.826 186.779 648.143 195.602 C 649.044 197.522 650.2 199.264 651.572 200.767 C 652.948 202.182 654.628 203.145 656.436 203.558 C 658.115 203.982 659.876 204.191 661.437 205.078 C 663.041 206.024 664.219 207.715 664.675 209.726 C 665.292 212.186 665.105 214.756 664.847 217.261 C 664.562 220.042 664.226 222.927 665.043 225.635 C 665.142 225.963 664.694 226.121 664.596 225.794 C 663.174 221.081 665.098 216.17 664.502 211.365 C 664.223 209.124 663.357 206.965 661.604 205.793 C 660.072 204.768 658.256 204.55 656.553 204.139 C 654.784 203.766 653.12 202.899 651.708 201.614 C 650.276 200.196 649.063 198.508 648.121 196.62 C 645.942 192.411 644.351 187.832 643.406 183.052 C 642.301 177.604 642.012 171.978 642.552 166.417 C 642.585 166.073 643.04 166.198 643.007 166.54 Z" style="" fill="#fff"></path>
    <path d="M 646.608 192.856 C 643.754 194.166 640.497 192.899 638.914 189.862 C 638.761 189.564 639.154 189.274 639.309 189.572 C 640.779 192.404 643.819 193.579 646.471 192.34 C 646.75 192.21 646.886 192.727 646.608 192.856 Z" style="" fill="#fff"></path>
    <path d="M 655.56 203.473 C 656.787 200.264 656.92 196.64 655.934 193.322 C 655.836 192.994 656.283 192.836 656.381 193.164 C 657.402 196.618 657.257 200.389 655.973 203.725 C 655.851 204.043 655.438 203.789 655.56 203.473 Z" style="" fill="#fff"></path>
    <path d="M 642.911 177.731 C 644.087 177.494 645.081 176.589 645.556 175.326 C 645.675 175.006 646.088 175.261 645.969 175.578 C 645.44 176.971 644.345 177.971 643.049 178.247 C 642.925 178.285 642.798 178.207 642.756 178.068 C 642.719 177.926 642.788 177.775 642.911 177.731 Z" style="fill: rgb(251, 214, 158);"></path>
    <path d="M 768.173 220.752 C 767.186 223.114 765.883 225.284 764.311 227.18 C 763.958 227.604 763.596 228.014 763.223 228.411 C 762.965 228.689 762.7 228.959 762.43 229.225 L 744.163 229.225 C 744.178 228.952 744.204 228.682 744.24 228.411 C 744.357 227.537 744.621 226.697 745.02 225.942 C 746.539 223.123 749.662 222.257 752.385 221.186 C 753.034 220.93 753.678 220.649 754.31 220.341 C 755.126 219.948 755.926 219.513 756.706 219.041 C 760.197 216.93 763.318 214.091 765.91 210.666 C 765.993 210.557 766.073 210.447 766.153 210.335 C 767.217 208.898 768.179 207.363 769.027 205.747 C 769.092 205.631 769.152 205.511 769.214 205.391 C 769.253 205.514 769.291 205.641 769.33 205.764 C 770.783 210.653 770.142 216.041 768.173 220.752 Z" style="fill: rgb(184, 208, 188);"></path>
    <path d="M 769.377 205.439 C 769.362 205.549 769.348 205.658 769.33 205.764 C 768.98 208.127 768.398 210.436 767.595 212.647 C 767.225 213.666 766.811 214.661 766.352 215.63 C 765.462 217.516 764.408 219.292 763.205 220.93 C 763.14 221.019 763.071 221.108 763.006 221.196 C 762.49 221.877 761.949 222.525 761.384 223.139 C 760.514 224.126 759.507 224.936 758.403 225.534 C 757.506 225.977 756.537 226.192 755.561 226.164 C 755.377 226.164 755.193 226.154 755.007 226.14 C 754.26 226.085 753.494 225.969 752.74 225.993 C 752.361 225.998 751.982 226.056 751.613 226.164 C 750.595 226.511 749.743 227.323 749.255 228.411 C 749.151 228.621 749.057 228.837 748.974 229.058 C 748.953 229.113 748.932 229.171 748.915 229.225 L 748.588 229.225 C 748.68 228.947 748.787 228.675 748.908 228.411 C 748.971 228.271 749.039 228.135 749.11 228.001 C 749.696 226.84 750.683 226.023 751.824 225.753 C 752.166 225.68 752.514 225.645 752.862 225.647 C 753.631 225.634 754.402 225.757 755.167 225.805 C 755.247 225.808 755.327 225.815 755.407 225.815 C 755.508 225.819 755.612 225.819 755.712 225.819 C 756.719 225.819 757.712 225.551 758.613 225.035 C 759.692 224.371 760.674 223.517 761.523 222.503 C 761.983 221.98 762.425 221.432 762.846 220.868 C 762.867 220.844 762.884 220.82 762.902 220.796 C 764.71 218.369 766.179 215.633 767.256 212.685 C 767.298 212.579 767.337 212.473 767.375 212.367 C 768.135 210.237 768.69 208.017 769.027 205.747 C 769.045 205.641 769.06 205.531 769.075 205.425 C 769.104 205.207 769.407 205.22 769.377 205.439 Z" style="" fill="#fff"></path>
    <path d="M 767.458 212.415 C 766.761 212.033 766.278 211.271 766.172 210.39 C 766.145 210.167 765.851 210.243 765.876 210.465 C 765.998 211.437 766.529 212.278 767.295 212.709 C 767.366 212.757 767.457 212.734 767.504 212.656 C 767.549 212.574 767.528 212.467 767.458 212.415 Z" style="" fill="#fff"></path>
    <path d="M 754.755 217.344 C 754.648 218.357 754.5 219.353 754.31 220.341 L 754.31 220.344 C 753.954 222.154 753.469 223.926 752.862 225.644 L 752.862 225.647 C 752.824 225.767 752.782 225.88 752.74 225.993 C 752.447 226.81 752.13 227.615 751.792 228.411 C 751.676 228.685 751.557 228.955 751.436 229.225 L 739.533 229.225 L 738.957 228.411 L 738.755 228.124 C 738.788 227.873 738.833 227.626 738.892 227.381 C 739.426 225.038 740.885 222.907 742.102 220.837 C 742.98 219.339 743.759 217.765 744.43 216.13 C 746.118 212.021 747.129 207.586 747.411 203.051 C 747.419 202.904 747.426 202.757 747.431 202.61 C 747.531 200.726 747.498 198.836 747.333 196.958 L 747.333 196.951 C 747.321 196.814 747.31 196.675 747.295 196.538 C 747.39 196.613 747.485 196.681 747.577 196.753 C 747.578 196.753 747.58 196.754 747.58 196.757 L 747.583 196.757 C 751.281 199.644 753.583 204.375 754.476 209.493 C 754.479 209.503 754.479 209.513 754.481 209.524 C 754.926 212.098 755.018 214.737 754.755 217.344 Z" style="fill: rgb(184, 208, 188);"></path>
    <path d="M 750.608 213.123 C 750.602 213.239 750.596 213.352 750.587 213.468 C 750.531 214.368 750.439 215.264 750.308 216.15 C 750.128 217.542 749.745 218.889 749.176 220.132 C 748.691 221.109 748.029 221.952 747.235 222.606 C 747.088 222.736 746.936 222.859 746.782 222.975 C 745.842 223.687 744.795 224.317 744.083 225.35 C 743.508 226.225 743.243 227.319 743.341 228.411 C 743.356 228.685 743.388 228.957 743.436 229.225 L 743.131 229.225 C 743.092 229.004 743.063 228.78 743.045 228.555 C 743.042 228.507 743.038 228.459 743.036 228.411 C 742.932 227.123 743.295 225.843 744.039 224.874 C 744.795 223.913 745.809 223.307 746.732 222.592 C 746.8 222.541 746.865 222.486 746.93 222.432 C 747.013 222.366 747.096 222.295 747.177 222.223 C 747.983 221.529 748.636 220.625 749.083 219.585 C 749.599 218.307 749.936 216.944 750.083 215.545 C 750.175 214.806 750.244 214.064 750.291 213.321 C 750.291 213.287 750.294 213.256 750.294 213.222 L 750.294 213.219 C 750.469 210.027 750.216 206.823 749.544 203.721 C 749.516 203.609 749.49 203.499 749.466 203.386 C 748.963 201.159 748.248 199.004 747.333 196.958 L 747.333 196.951 C 747.289 196.855 747.247 196.76 747.203 196.664 C 747.111 196.469 747.36 196.267 747.449 196.466 C 747.493 196.561 747.535 196.657 747.577 196.753 C 747.578 196.753 747.58 196.754 747.58 196.756 C 748.543 198.9 749.287 201.165 749.798 203.506 C 750.032 204.559 750.217 205.626 750.353 206.702 C 750.628 208.826 750.713 210.978 750.608 213.123 Z" style="" fill="#fff"></path>
    <path d="M 750.443 213.472 C 752.428 213.48 754.126 211.828 754.454 209.569 C 754.485 209.348 754.189 209.281 754.157 209.503 C 753.856 211.607 752.269 213.145 750.42 213.125 C 750.225 213.123 750.25 213.47 750.443 213.472 Z" style="" fill="#fff"></path>
    <path d="M 747.242 222.303 C 745.845 220.709 745.02 218.566 744.931 216.302 C 744.923 216.078 744.621 216.105 744.63 216.329 C 744.726 218.685 745.588 220.912 747.045 222.567 C 747.184 222.725 747.38 222.46 747.242 222.303 Z" style="" fill="#fff"></path>
    <path d="M 749.559 203.368 C 748.803 203.546 748.019 203.274 747.474 202.644 C 747.337 202.484 747.141 202.75 747.278 202.909 C 747.882 203.601 748.746 203.904 749.582 203.715 C 749.664 203.705 749.725 203.623 749.721 203.528 C 749.714 203.432 749.642 203.361 749.559 203.368 Z" style="" fill="#fff"></path>
    <path d="M 546.079 80.899 C 546.367 68.662 551.863 56.022 561.529 50.97 C 558.632 63.856 559.781 77.508 564.771 89.512 C 566.71 94.133 569.283 99.04 568.245 104.032 C 567.598 107.139 565.591 109.684 563.254 111.397 C 560.916 113.11 558.245 114.1 555.607 115.073 L 555.119 115.638 C 549.905 104.976 545.792 93.136 546.079 80.899 Z" style="fill: rgb(184, 208, 188);"></path>
    <path d="M 561.648 51.188 C 556.458 59.363 553.633 69.216 553.575 79.348 C 553.529 81.529 553.781 83.705 554.323 85.795 C 554.907 87.812 555.949 89.611 557.34 91.006 C 558.615 92.337 560.052 93.528 561.023 95.193 C 562.008 96.934 562.3 99.077 561.829 101.083 C 561.303 103.571 560.034 105.693 558.73 107.719 C 557.283 109.968 555.748 112.278 555.29 115.097 C 555.234 115.438 554.778 115.319 554.834 114.978 C 555.632 110.074 559.418 106.916 560.972 102.406 C 561.697 100.301 561.876 97.932 560.861 95.91 C 559.973 94.141 558.492 92.912 557.191 91.577 C 555.817 90.239 554.747 88.533 554.076 86.608 C 553.444 84.556 553.12 82.396 553.117 80.218 C 553.042 75.316 553.635 70.431 554.875 65.742 C 556.266 60.381 558.44 55.334 561.306 50.819 C 561.484 50.54 561.824 50.91 561.648 51.188 Z" style="" fill="#fff"></path>
    <path d="M 553.427 76.084 C 550.386 75.585 548.107 72.617 548.043 69.074 C 548.038 68.727 548.505 68.701 548.51 69.049 C 548.564 72.349 550.695 75.112 553.531 75.558 C 553.829 75.605 553.724 76.131 553.427 76.084 Z" style="" fill="#fff"></path>
    <path d="M 556.617 90.43 C 559.065 88.349 560.743 85.281 561.317 81.838 C 561.374 81.497 561.83 81.616 561.774 81.957 C 561.171 85.54 559.418 88.727 556.867 90.886 C 556.623 91.091 556.375 90.634 556.617 90.43 Z" style="" fill="#fff"></path>
    <path d="M 556.74 60.842 C 557.863 61.31 559.115 61.095 560.072 60.271 C 560.313 60.062 560.561 60.52 560.322 60.727 C 559.261 61.632 557.881 61.872 556.637 61.368 C 556.513 61.331 556.436 61.19 556.46 61.045 C 556.489 60.9 556.614 60.809 556.74 60.842 Z" style="" fill="#fff"></path>
    <path d="M 593.818 69.159 C 593.671 69.295 593.523 69.43 593.377 69.57 C 591.405 71.402 589.567 73.416 587.878 75.592 C 587.745 75.758 587.613 75.929 587.484 76.098 C 583.464 81.39 580.332 87.497 578.245 94.108 C 577.416 96.74 576.763 99.441 576.29 102.186 C 575.637 105.979 575.19 110.15 573.538 113.378 C 573.368 113.716 573.181 114.043 572.977 114.355 L 555.755 116.281 C 555.714 116.262 555.673 116.248 555.632 116.23 L 554.947 116.343 C 554.963 116.2 554.982 116.051 554.997 115.907 C 555.006 115.824 555.019 115.74 555.028 115.657 C 555.035 115.602 555.042 115.546 555.046 115.495 C 555.049 115.477 555.051 115.458 555.054 115.444 C 555.058 115.393 555.066 115.347 555.07 115.301 C 555.174 114.47 555.283 113.639 555.4 112.807 C 555.399 112.802 555.399 112.802 555.403 112.797 C 556.294 106.462 557.652 100.157 559.797 94.29 C 559.861 94.114 559.925 93.933 559.998 93.756 C 560.977 91.117 562.142 88.576 563.48 86.156 C 564.216 84.834 565.011 83.556 565.859 82.327 C 568.058 79.154 570.674 76.401 573.614 74.167 C 579.475 69.715 586.506 67.474 593.3 69.034 C 593.474 69.074 593.644 69.115 593.818 69.159 Z" style="fill: rgb(184, 208, 188);"></path>
    <path d="M 593.8 69.416 C 585.389 72.339 577.991 78.245 572.655 86.295 C 571.48 88.004 570.546 89.917 569.887 91.961 C 569.301 93.977 569.194 96.138 569.576 98.217 C 569.899 100.165 570.425 102.114 570.332 104.119 C 570.208 106.192 569.324 108.106 567.9 109.38 C 566.182 111.002 564.06 111.815 561.962 112.527 C 559.633 113.318 557.202 114.096 555.364 116.028 C 555.142 116.263 554.839 115.85 555.062 115.616 C 558.259 112.256 562.931 112.363 566.525 109.841 C 568.202 108.664 569.582 106.897 569.828 104.578 C 570.042 102.549 569.501 100.538 569.159 98.569 C 568.761 96.547 568.797 94.442 569.266 92.439 C 569.832 90.362 570.701 88.412 571.835 86.671 C 574.334 82.705 577.357 79.217 580.796 76.334 C 584.704 73.019 589.075 70.499 593.72 68.884 C 594.008 68.784 594.086 69.316 593.8 69.416 Z" style="" fill="#fff"></path>
    <path d="M 574.242 83.586 C 572.074 81.075 571.803 77.123 573.601 74.249 C 573.778 73.969 574.164 74.273 573.987 74.554 C 572.308 77.226 572.568 80.912 574.598 83.237 C 574.812 83.482 574.453 83.829 574.242 83.586 Z" style="" fill="#fff"></path>
    <path d="M 569.3 97.254 C 572.34 97.294 575.281 96.01 577.538 93.659 C 577.761 93.426 578.063 93.838 577.84 94.071 C 575.488 96.512 572.425 97.841 569.261 97.792 C 568.959 97.787 569 97.25 569.3 97.254 Z" style="" fill="#fff"></path>
    <path d="M 584.843 73.716 C 585.495 74.87 586.606 75.568 587.8 75.574 C 588.102 75.575 588.061 76.112 587.762 76.112 C 586.443 76.098 585.216 75.331 584.486 74.065 C 584.406 73.949 584.418 73.783 584.513 73.684 C 584.612 73.589 584.759 73.603 584.843 73.716 Z" style="" fill="#fff"></path>
    <path d="M 716.158 228.551 L 666.919 228.551 C 661.189 228.543 656.546 223.188 656.539 216.579 L 656.539 128.997 C 656.546 122.388 661.189 117.032 666.919 117.024 L 716.158 117.024 C 721.888 117.032 726.531 122.388 726.538 128.997 L 726.538 216.579 C 726.531 223.188 721.888 228.543 716.158 228.551 Z" style="" fill="#fff"></path>
    <path d="M 710.819 219.854 L 672.258 219.854 C 666.61 219.846 662.032 214.567 662.026 208.052 L 662.026 137.523 C 662.032 131.008 666.61 125.729 672.258 125.722 L 710.819 125.722 C 716.467 125.729 721.044 131.008 721.051 137.523 L 721.051 208.052 C 721.044 214.567 716.467 219.846 710.819 219.854 Z" style="fill: rgb(251, 214, 158);"></path>
    <rect x="656.976" y="194.184" width="69.406" height="18.474" style="" fill="#3f3d56"></rect>
    <path d="M 558.575 149.839 L 546.822 132.41 C 543.631 127.678 544.37 120.858 548.473 117.177 L 596.076 74.473 C 598.861 71.97 602.225 70.469 605.745 70.157 L 609.76 69.798 L 644.331 46.443 C 643.379 44.051 645.03 41.366 647.303 41.613 C 648.117 41.7 648.865 42.174 649.367 42.919 L 659.2 57.501 C 660.602 59.578 659.528 62.628 657.267 62.989 C 656.45 63.12 655.622 62.852 654.983 62.249 L 626.704 94.866 C 626.101 100.296 623.654 105.228 619.899 108.576 L 571.782 151.743 C 567.679 155.424 561.766 154.571 558.575 149.839 Z" style="" fill="#fff"></path>
    <path d="M 716.158 228.551 L 666.919 228.551 C 661.189 228.543 656.546 223.188 656.539 216.579 L 656.539 128.997 C 656.546 122.388 661.189 117.032 666.919 117.024 L 716.158 117.024 C 721.888 117.032 726.531 122.388 726.538 128.997 L 726.538 216.579 C 726.531 223.188 721.888 228.543 716.158 228.551 Z M 666.919 117.709 C 661.516 117.715 657.138 122.765 657.132 128.997 L 657.132 216.579 C 657.138 222.81 661.516 227.86 666.919 227.866 L 716.158 227.866 C 721.56 227.86 725.939 222.81 725.944 216.579 L 725.944 128.997 C 725.939 122.765 721.56 117.715 716.158 117.709 L 666.919 117.709 Z" style="" fill="#3f3d56"></path>
    <path d="M 658.095 44.852 C 663.506 42.301 669.657 42.97 674.559 46.641 C 679.528 50.32 683.229 56.948 684.465 64.379 C 685.071 68.02 685.291 72.256 687.499 74.523 C 689.117 76.184 691.32 76.226 693.266 77.029 C 699.024 79.403 701.995 88.619 701.157 96.622 C 700.318 104.625 696.584 111.518 692.578 117.552 C 693.852 114.31 692.198 110.104 689.778 108.403 C 687.358 106.701 684.475 106.844 681.751 107.126 C 679.028 107.407 676.189 107.764 673.649 106.415 C 669.309 104.109 667.112 97.426 666.784 91.177 C 666.456 84.929 667.539 78.703 667.617 72.44 C 667.695 66.178 666.489 59.317 662.739 55.588 C 661.014 53.872 658.88 52.958 657.276 51.043 C 655.671 49.13 654.81 45.497 656.309 43.434" style="fill: rgb(251, 214, 158);"></path>
    <path d="M 718.373 114.131 C 718.218 114.131 718.064 114.138 717.911 114.147 C 719.975 107.446 714.976 100.679 708.911 101.968 C 708.225 102.114 707.558 102.363 706.927 102.708 C 705.643 98.541 702.885 95.657 699.687 95.657 C 696.489 95.657 693.73 98.541 692.446 102.708 C 690.271 101.518 687.747 101.518 685.572 102.708 C 684.288 98.541 681.529 95.657 678.331 95.657 C 675.133 95.657 672.375 98.541 671.091 102.708 C 665.521 99.658 659.176 104.707 659.671 111.796 C 659.727 112.6 659.875 113.393 660.109 114.153 C 659.956 114.14 659.801 114.131 659.645 114.131 C 655.222 114.131 651.637 119.645 651.637 126.447 C 651.637 133.249 655.222 138.763 659.645 138.763 C 663.288 138.763 666.36 135.021 667.332 129.902 C 669.728 132.662 673.37 133.387 676.429 131.712 C 677.713 135.88 680.472 138.763 683.67 138.763 C 687.313 138.763 690.385 135.021 691.357 129.902 C 693.753 132.662 697.395 133.387 700.455 131.712 C 701.739 135.88 704.497 138.763 707.695 138.763 C 710.893 138.763 713.652 135.88 714.936 131.712 C 720.504 134.764 726.848 129.718 726.355 122.63 C 726.022 117.83 722.548 114.131 718.373 114.131 Z" style="" fill="#f0f0f0"></path>
    <circle cx="441.05952" cy="286.6989" r="5" transform="matrix(0.296606, 0, 0, 0.342107, 544.840637, 40.680752)" style="" fill="#fff"></circle>
    <circle cx="472.05952" cy="371.6989" r="5" transform="matrix(0.296606, 0, 0, 0.342107, 544.840637, 40.680752)" style="" fill="#fff"></circle>
    <circle cx="504.05952" cy="313.6989" r="5" transform="matrix(0.296606, 0, 0, 0.342107, 544.840637, 40.680752)" style="" fill="#fff"></circle>
    <circle cx="468.05952" cy="331.6989" r="5" transform="matrix(0.296606, 0, 0, 0.342107, 544.840637, 40.680752)" style="" fill="#fff"></circle>
    <circle cx="531.05952" cy="385.6989" r="5" transform="matrix(0.296606, 0, 0, 0.342107, 544.840637, 40.680752)" style="" fill="#fff"></circle>
    <circle cx="549.05952" cy="286.6989" r="5" transform="matrix(0.296606, 0, 0, 0.342107, 544.840637, 40.680752)" style="" fill="#fff"></circle>
    <path d="M 726.241 200.684 L 726.241 200 C 747.538 200 760.848 173.409 750.2 152.136 C 745.258 142.264 736.125 136.182 726.241 136.182 L 726.241 135.498 C 747.994 135.498 761.59 162.659 750.714 184.387 C 745.666 194.472 736.337 200.684 726.241 200.684 Z" style="" fill="#3f3d56"></path>
    <path d="M 726.381 194.526 L 726.085 194.526 L 726.085 193.664 L 726.678 193.664 L 726.678 193.84 C 742.995 193.577 752.947 173.038 744.59 156.87 C 740.766 149.472 733.849 144.94 726.381 144.94 L 726.381 144.255 C 743.157 144.255 753.642 165.201 745.254 181.958 C 741.361 189.735 734.167 194.526 726.381 194.526 Z" style="" fill="#3f3d56"></path>
    <path d="M 561.057 145.65 L 550.953 130.665 C 548.245 126.651 548.872 120.864 552.354 117.742 L 593.281 81.026 C 595.66 78.889 598.531 77.607 601.538 77.34 L 605.014 77.03 L 637.058 55.382 L 645.672 68.157 L 619.447 98.405 C 618.941 103.057 616.848 107.285 613.633 110.153 L 572.263 147.266 C 568.782 150.389 563.765 149.665 561.057 145.65 Z" style="fill: rgb(251, 214, 158);"></path>
    <path d="M 656.332 57.915 C 657.316 58.233 658.578 57.914 659.636 56.965 C 661.188 55.573 661.712 53.356 660.807 52.014 C 660.642 51.77 660.438 51.567 660.205 51.413 C 660.44 50.579 660.316 49.665 659.87 48.953 C 659.753 48.78 659.615 48.627 659.461 48.499 C 660.482 46.869 660.865 45.413 660.339 44.633 C 660.03 44.244 659.583 44.039 659.127 44.078 C 659.201 43.413 659.048 42.74 658.7 42.202 C 657.936 41.069 656.397 40.925 655.002 41.745 C 654.985 41.718 654.971 41.689 654.954 41.662 C 654.049 40.32 652.057 40.36 650.505 41.752 C 649.729 42.421 649.18 43.382 648.956 44.469 C 647.987 44.452 647.044 44.829 646.291 45.533 C 644.74 46.925 644.215 49.142 645.12 50.484 C 645.161 50.543 645.205 50.596 645.249 50.65 L 645.231 50.672 C 645.196 50.608 645.161 50.544 645.12 50.484 C 644.215 49.142 642.224 49.181 640.672 50.574 C 639.895 51.242 639.347 52.203 639.122 53.29 C 638.154 53.274 637.211 53.65 636.458 54.354 C 634.906 55.746 634.382 57.963 635.287 59.305 C 636.192 60.648 638.184 60.607 639.735 59.215 C 638.164 60.621 638.433 63.445 640.23 64.424 C 639.903 65.335 639.87 66.102 640.204 66.596 C 640.73 67.376 642.048 67.307 643.668 66.567 C 643.738 66.771 643.833 66.962 643.95 67.136 C 644.855 68.479 646.847 68.438 648.398 67.046 C 649.175 66.378 649.723 65.416 649.948 64.329 C 650.917 64.346 651.86 63.969 652.613 63.266 C 652.97 62.946 653.284 62.567 653.546 62.142 C 653.968 61.955 654.363 61.696 654.72 61.375 C 655.778 60.426 656.357 59.093 656.332 57.915 Z" style="" fill="#f0f0f0"></path>
    <path d="M 558.575 149.839 L 546.822 132.41 C 543.631 127.678 544.37 120.858 548.473 117.177 L 596.076 74.473 C 598.861 71.97 602.225 70.469 605.745 70.157 L 609.76 69.798 L 644.331 46.443 C 643.379 44.051 645.03 41.366 647.303 41.613 C 648.117 41.7 648.865 42.174 649.367 42.919 L 659.2 57.501 C 660.602 59.578 659.528 62.628 657.267 62.989 C 656.45 63.12 655.622 62.852 654.983 62.249 L 626.704 94.866 C 626.101 100.296 623.654 105.228 619.899 108.576 L 571.782 151.743 C 567.679 155.424 561.766 154.571 558.575 149.839 Z M 648.898 43.339 C 647.779 41.676 645.518 42.035 644.829 43.985 C 644.551 44.773 644.606 45.666 644.98 46.401 L 645.13 46.696 L 609.942 70.468 L 605.791 70.839 C 602.387 71.14 599.134 72.593 596.44 75.014 L 548.838 117.717 C 544.993 121.166 544.3 127.557 547.291 131.99 L 559.043 149.419 C 562.033 153.853 567.573 154.652 571.418 151.203 L 619.535 108.037 C 623.193 104.773 625.567 99.959 626.128 94.664 L 626.141 94.548 L 654.973 61.293 L 655.183 61.536 C 656.473 63.025 658.678 62.345 659.151 60.31 C 659.344 59.482 659.188 58.598 658.732 57.921 L 648.898 43.339 Z" style="" fill="#3f3d56"></path>
    <rect x="95.872" y="100.267" width="22.646" height="40.649" transform="matrix(0.744368, -0.66777, 0.564453, 0.837053, 440.775299, 79.524704)" style="" fill="#3f3d56"></rect>
    <path d="M 569.152 99.493 L 591.733 132.978 L 608.122 118.276 L 585.541 84.791 L 569.152 99.493 Z" style="" fill="#3f3d56"></path>
    <circle cx="304.14808" cy="77.85592" r="5" transform="matrix(0.296606, 0, 0, 0.342107, 544.840637, 40.680752)" style="" fill="#fff"></circle>
    <circle cx="264.68049" cy="85.74953" r="5" transform="matrix(0.296606, 0, 0, 0.342107, 544.840637, 40.680752)" style="" fill="#fff"></circle>
    <circle cx="267.04862" cy="118.11297" r="5" transform="matrix(0.296606, 0, 0, 0.342107, 544.840637, 40.680752)" style="" fill="#fff"></circle>
    <circle cx="227.58102" cy="126.00658" r="5" transform="matrix(0.296606, 0, 0, 0.342107, 544.840637, 40.680752)" style="" fill="#fff"></circle>
    <circle cx="433.05952" cy="66.6989" r="5" transform="matrix(0.296606, 0, 0, 0.342107, 544.840637, 40.680752)" style="" fill="#fff"></circle>
    <circle cx="451.05952" cy="93.6989" r="5" transform="matrix(0.296606, 0, 0, 0.342107, 544.840637, 40.680752)" style="" fill="#fff"></circle>
    <circle cx="451.05952" cy="138.6989" r="5" transform="matrix(0.296606, 0, 0, 0.342107, 544.840637, 40.680752)" style="" fill="#fff"></circle>
    <polygon points="657.508 100.029 657.508 100.029 657.508 100.029 657.508 100.029" style="" fill="#f2f2f2"></polygon>
    <path d="M 657.003 100.039 C 655.363 100.099 650.108 100.496 647.378 103.14 C 644.117 106.3 644.117 109.3 645.697 111.471 C 647.277 113.641 649.839 114.159 653.101 110.999 C 655.865 108.321 657.109 102.303 657.424 100.531 L 657.003 100.039 Z" style="" fill="#f2f2f2"></path>
    <polygon points="698.858 61.543 698.858 61.543 698.858 61.543 698.858 61.543" style="" fill="#f2f2f2"></polygon>
    <path d="M 699.173 61.997 C 700.217 63.458 703.702 68.011 707.185 68.885 C 711.348 69.93 713.406 68.095 713.928 65.326 C 714.45 62.556 713.239 59.901 709.077 58.856 C 705.55 57.971 700.661 60.516 699.253 61.313 L 699.173 61.997 Z" style="" fill="#f2f2f2"></path>
    <polygon points="725.802 106.236 725.802 106.236 725.802 106.236 725.802 106.236" style="" fill="#f2f2f2"></polygon>
    <path d="M 725.855 106.814 C 726.048 108.694 726.844 114.698 729.364 117.607 C 732.375 121.081 734.966 120.822 736.704 118.819 C 738.443 116.815 738.669 113.827 735.658 110.352 C 733.106 107.406 727.801 106.497 726.242 106.288 L 725.855 106.814 Z" style="" fill="#f2f2f2"></path>
  </g>
  <path d="M 626.093 302.094 L 90.047 302.094 C 82.862 302.094 77.016 294.569 77.016 285.318 L 77.016 49.741 C 77.016 40.491 82.862 32.965 90.047 32.965 L 626.093 32.965 C 633.277 32.965 639.123 40.491 639.123 49.741 L 639.123 285.318 C 639.123 294.569 633.277 302.094 626.093 302.094 Z M 90.047 34.965 C 83.719 34.965 78.569 41.594 78.569 49.741 L 78.569 285.318 C 78.569 293.465 83.719 300.094 90.047 300.094 L 626.093 300.094 C 632.421 300.094 637.569 293.465 637.569 285.318 L 637.569 49.741 C 637.569 41.594 632.421 34.965 626.093 34.965 L 90.047 34.965 Z" fill="#3f3d56" style=""></path>
  <rect x="145.864" y="125.612" width="33.716" height="6.125" rx="5.13" ry="5.13" style="fill: rgb(255, 255, 255);" transform="matrix(0.726617, 0.687043, -0.753015, 0.664238, 206.785828, 14.09054)"></rect>
  <g transform="matrix(-0.998663, 0.077309, 0.077181, 0.997017, 703.486389, 53.783722)" style="">
    <g transform="matrix(0.941366, -0.060123, 0.06459, 0.997899, -11.997884, 26.003096)" style="">
      <polygon points="340.11391 458.20431 351.70127 458.20318 357.21344 413.50859 340.11158 413.50978 340.11391 458.20431" fill="#ffb6b6"></polygon>
      <path d="M379.81365,457.94146h0c.36079,.60764,.55116,2.56882,.55116,3.27545h0c0,2.172-1.76073,3.9328-3.9328,3.9328h-35.88469c-1.48173,0-2.68297-1.20117-2.68297-2.68297v-1.49399s-1.77518-4.49023,1.8796-10.02469c0,0,4.54241,4.33356,11.32993-2.45396l2.00158-3.62601,14.48869,10.59629,8.03086,.98852c1.75699,.21625,3.31472-.03356,4.21849,1.48856h.00014Z" fill="#2f2e41"></path>
    </g>
    <g transform="matrix(0.946038, 0.177059, -0.164303, 0.983969, 85.713974, -62.394871)" style="">
      <polygon points="407.86 457.035 419.086 454.166 413.365 409.498 396.795 413.732 407.86 457.035" fill="#ffb6b6" transform="matrix(0.987637, -0.156757, 0.156757, 0.987637, -62.874271, 69.303916)"></polygon>
      <path d="M 448.071 445.217 C 448.571 445.717 449.241 447.57 449.416 448.255 C 449.954 450.359 448.683 452.501 446.579 453.038 L 411.811 461.92 C 410.375 462.287 408.914 461.42 408.547 459.984 L 408.177 458.537 C 408.177 458.537 405.346 454.626 407.517 448.359 C 407.517 448.359 412.991 451.433 417.887 443.177 L 418.929 439.169 L 435.59 445.849 L 443.615 444.819 C 445.371 444.594 446.819 443.966 448.071 445.217 L 448.071 445.217 L 448.071 445.217 Z" fill="#2f2e41"></path>
    </g>
    <path id="uuid-bb35f39c-94aa-41c4-b5d9-34ca9a9e88f1-1027" d="M 451.228 150.268 C 451.79 157.948 455.884 163.858 460.372 163.468 C 464.86 163.079 468.043 156.538 467.481 148.855 C 467.294 145.783 466.435 142.804 464.975 140.167 L 462.22 107.66 L 448.238 109.393 L 452.439 141.255 C 451.38 144.111 450.965 147.202 451.228 150.268 Z" fill="#ffb6b6" style="" transform="matrix(-0.269233, -0.964665, 0.961487, -0.269234, 450.819423, 613.786061)"></path>
    <path d="M 354.449 143.518 C 354.439 142.855 354.445 137.071 358.981 133.415 C 364.191 129.215 371.544 130.915 374.122 131.511 C 380.079 132.889 380.567 135.301 386.162 137.78 C 396.628 142.417 383.514 140.044 389.742 138.556 C 391.898 138.042 422.909 136.011 430.629 131.526 C 445.642 122.802 455.871 117.512 455.871 117.512 L 462.558 130.139 C 462.558 130.139 452.889 142.832 439.279 152.236 C 425.319 161.882 418.339 166.705 407.731 168.568 C 406.818 168.729 384.351 172.35 366.257 159.588 C 362.129 156.676 354.567 151.343 354.449 143.518 Z" style="fill: rgb(230, 230, 230);" transform="matrix(0.983461, 0.18142, -0.180822, 0.983461, 32.674942, -71.739943)"></path>
    <polygon points="334.313 116.782 333.901 112.795 338.794 96.847 352.239 94.854 355.142 117.685 334.313 116.782" fill="#ffb6b6" style=""></polygon>
    <polygon points="334.313 116.782 333.901 112.795 338.794 96.847 352.239 94.854 355.142 117.685 334.313 116.782" opacity=".1" style=""></polygon>
    <polygon points="308.38 222.871 301.015 244.799 306.539 256.76 334.16 430.194 352.524 430.194 348.891 276.695 391.244 430.194 409.418 430.194 394.802 326.532 383.878 230.845 377.252 226.413 345.208 206.923 308.38 222.871" style="" fill="#2f2e41"></polygon>
    <polygon points="360.42983 244.10894 348.46886 246.10244 332.52089 208.22602 368.40382 208.22602 360.42983 244.10894" fill="#e6e6e6"></polygon>
    <polygon points="384.35179 234.14146 360.42983 244.10894 352.45585 226.16748 348.46886 246.10244 306.60544 232.62639 312.58593 208.22602 306.60544 128.48618 327.71662 114.41198 330.5274 112.53821 356.44284 114.53171 358.71546 115.76767 374.38431 124.49919 378.3713 190.28455 384.35179 234.14146" fill="#2f2e41"></polygon>
    <polygon points="358.71546 115.76767 347.47211 163.37236 327.71662 114.41198 330.5274 112.53821 356.44284 114.53171 358.71546 115.76767" fill="#e6e6e6"></polygon>
    <polygon points="339.49813 112.53821 335.51114 119.4047 339.49813 121.69353 337.50463 163.49619 345.47862 174.33659 353.4526 158.31478 347.47211 121.69353 349.46561 112.53821 339.49813 112.53821" fill="#2f2e41"></polygon>
    <circle cx="345.47862" cy="89.61301" r="18.93821" fill="#ffb6b6"></circle>
    <path d="M333.37575,91.27425l4.09196,1.78584,1.78584-10.71504s7.14336-3.57168,12.50088-1.78584,14.28672,0,14.28672,0c0,0,0-17.8584-12.50088-17.8584s-25.00176,1.78584-25.00176,7.14336-5.35752,10.71504-5.35752,10.71504c0,0-7.14336,10.71504,0,17.8584,7.14336,7.14336,10.71504,7.14336,10.71504,7.14336l-.52028-14.28672Z" fill="#2f2e41"></path>
    <path id="uuid-97233535-ec91-4408-928f-bf1e5273ca3e-1028" d="M296.62879,277.23211c-.20767,7.7014,3.59771,14.05116,8.49895,14.18252s9.04142-6.00486,9.24813-13.70902c.12478-3.07637-.48897-6.13789-1.78994-8.92841l.46781-32.64224-15.32272,.10697,1.16561,32.1681c-1.44966,2.71738-2.22731,5.74249-2.26784,8.82207Z" fill="#ffb6b6"></path>
    <path d="M315.58593,124.46179s-12.95772-3.98699-18.93821,7.97398c-5.98049,11.96098,1.9935,133.56423,1.9935,133.56423h20.11547l-5.33868-85.72033,2.16793-55.81789Z" fill="#e6e6e6"></path>
  </g>
  <g>
    <path d="M 812.472 350.924 L 764.181 336.214 C 763.112 335.888 761.992 335.77 760.878 335.864 L 516.127 356.591 C 512.638 356.886 511.761 361.57 514.909 363.096 L 522.749 366.897 L 522.54 366.897 L 522.54 548.832 L 529.928 548.832 L 529.928 370.377 L 554.498 382.288 C 556.378 383.199 558.476 383.571 560.557 383.362 L 563.171 383.099 L 563.171 548.832 L 570.558 548.832 L 570.558 382.357 L 759.861 363.33 L 759.861 548.832 L 767.249 548.832 L 767.249 362.587 L 798.645 359.431 L 798.645 548.832 L 806.033 548.832 L 806.033 358.689 L 811.761 358.113 C 815.782 357.709 816.337 352.101 812.472 350.924 L 812.472 350.924 Z" fill="#3f3d56" style=""></path>
    <path d="M587.22595,355.98226c4.61999,0,72.99587-8.31599,72.99587-8.31599l10.16398,13.85998-71.14788,13.85998-12.01198-19.40397Z" fill="#fff"></path>
    <g style="" transform="matrix(1, 0, 0, 0.978059, 0, 10.906049)">
      <polygon points="662.26939 542.91667 650.39 542.89512 644.81757 497.06436 662.35045 497.09569 662.26939 542.91667" fill="#a0616a"></polygon>
      <path d="M621.56955,542.57731h0c-.37095,.62232-.56957,2.63259-.57082,3.35703h0c-.00382,2.22674,1.79818,4.03501,4.02499,4.03884l36.78911,.06316c1.51907,.00261,2.7527-1.22673,2.75531-2.74587l.00263-1.53165s1.82782-4.60028-1.90933-10.28065c0,0-4.66452,4.43479-11.61116-2.53575l-2.04565-3.72093-14.87251,10.83785-8.23501,.9993c-1.80165,.21861-3.39821-.04024-4.32743,1.51866h-.00014Z" fill="#2f2e41"></path>
    </g>
    <g style="" transform="matrix(0.997061, 0, 0, 0.979106, 1.931983, 10.200947)">
      <polygon points="726.02735 521.60456 716.65452 528.67376 684.92538 495.88695 698.75852 485.45309 726.02735 521.60456" fill="#a0616a"></polygon>
      <path d="M693.75683,545.61506h0c.07894,.71161,1.12159,2.41402,1.55275,2.98556h0c1.32526,1.75677,3.82374,2.10662,5.58057,.78132l29.02444-21.89533c1.19846-.90409,1.43715-2.60858,.53302-3.80709l-.91157-1.20838s-1.30394-4.71495-7.63691-6.96136c0,0-1.02986,6.27668-10.66123,4.92822l-3.83137-1.71153-5.2534,17.41094-5.89241,5.69963c-1.28915,1.24695-2.70151,1.99536-2.50376,3.77794l-.00011,.00009Z" fill="#2f2e41"></path>
    </g>
    <path d="M701.20012,284.7398c0,10.95483-8.88064,19.83547-19.83547,19.83547-10.95483,0-19.83547-8.88064-19.83547-19.83547s8.88064-19.83547,19.83547-19.83547,19.83547,8.88064,19.83547,19.83547Z" fill="#a0616a"></path>
    <path d="M699.33129,399.1067s-73.0319-4.13388-77.16578,4.13388,22.34833,121.83338,22.34833,121.83338l23.62655-4.95175-11.52587-79.6767s60.94342,16.14005,69.21118-3.1514c8.26776-19.29144,5.88766-26.47475,5.88766-26.47475l-32.38207-11.71266Z" fill="#2f2e41"></path>
    <path d="M718.04278,385.22869s-71.52378,15.33281-73.3233,24.3996,53.78128,111.58133,53.78128,111.58133l21.47498-11.02537-32.19248-73.78934s63.04198-.55653,65.91197-21.34785c2.86999-20.79132-1.32556-27.08911-1.32556-27.08911l-34.3269-2.72925Z" fill="#2f2e41"></path>
    <path d="M726.20152,307.47234h-34.36221l-23.51213,38.58289s-5.51184,24.93349,0,27.62431c5.51184,2.69082,5.51184,31.62799,5.51184,31.62799l57.87433,5.51184s8.26776-86.8115,5.51184-95.07926c-2.75592-8.26776-11.02368-8.26776-11.02368-8.26776Z" style="fill: rgb(255, 183, 183);"></path>
    <path d="M671.77208,332.96463l-3.44492,40.71481-38.74748-16.44473-9.24771-4.6509c-1.81128-2.36188-4.16183-4.25556-6.85504-5.52279-6.69735-3.264-13.80747-2.4555-15.8841,1.80514-2.07668,4.26063,1.66736,10.35956,8.36279,13.62153,2.6583,1.34088,5.59915,2.02531,8.57642,1.99632l27.05797,15.36813,.03186-.06012,.11996,.21419,42.43185,17.72245,9.76312-53.44911-22.16474-11.31492Z" fill="#a0616a"></path>
    <path d="M667.63821,287.49192s-20.6694,2.75592-12.40164-15.15756c0,0-1.2606-9.71082,4.88154-10.36725s14.4099-11.68011,14.4099-11.68011c0,0,18.95509-9.64572,28.76899,0,9.8139,9.64572,38.75106,66.14209,38.75106,66.14209l-19.29144,20.6694s-11.59783-30.48873-25.09036-26.95703c-13.49253,3.5317-25.89417,14.06171-25.89417,14.06171,0,0-13.6928-6.8525-7.53538-12.82513,6.15742-5.97263,3.4015-23.88612,3.4015-23.88612Z" fill="#2f2e41"></path>
    <path d="M695.19741,317.80704s-9.64572-12.40164-16.53552-2.75592c-6.8898,9.64572-12.40164,22.04736-12.40164,22.04736l27.55921,9.64572,1.37796-28.93717Z" style="fill: rgb(255, 183, 183);"></path>
    <path d="M 799.836 546.746 L 767.817 445.22 L 767.821 445.22 L 767.895 445.22 L 767.766 445.054 L 767.763 445.05 L 765.483 437.819 L 765.484 437.818 C 768.958 434.831 771.323 430.563 771.795 425.65 L 757.158 345.345 C 758.166 334.799 750.062 325.582 739.445 325.204 L 706.422 325.121 C 697.034 324.789 688.903 331.555 687.535 340.828 L 686.805 345.75 L 676.687 414.414 C 676.318 416.884 676.466 419.318 677.048 421.595 L 669.767 422.544 L 667.558 422.839 L 658.827 423.973 L 658.799 423.982 L 657.709 424.12 L 656.526 424.12 L 656.526 453.617 L 656.6 453.617 L 656.6 547.897 C 656.6 548.506 657.099 549.003 657.709 549.003 C 658.328 549.003 658.827 548.506 658.827 547.897 L 658.827 453.617 L 671.781 453.617 L 684.708 547.787 C 684.791 548.34 685.262 548.745 685.817 548.745 C 685.863 548.745 685.918 548.745 685.964 548.736 C 686.574 548.653 686.999 548.091 686.916 547.482 L 674.036 453.617 L 736.193 453.617 C 742.365 453.617 748.084 451.663 752.74 448.318 L 777.385 547.614 C 777.513 548.116 777.966 548.45 778.463 548.45 C 778.554 548.45 778.646 548.439 778.738 548.416 C 779.334 548.265 779.694 547.66 779.542 547.066 L 754.659 446.81 C 754.99 446.535 755.321 446.241 755.634 445.939 L 765.527 445.358 L 797.713 547.413 C 797.862 547.887 798.301 548.191 798.774 548.191 C 798.885 548.191 798.997 548.174 799.108 548.139 C 799.694 547.955 800.02 547.331 799.836 546.746 L 799.836 546.746 Z M 763.368 439.394 C 763.451 439.348 763.525 439.293 763.599 439.247 L 763.599 439.246 L 763.837 440 L 763.368 439.394 L 763.368 439.394 Z" style="fill: rgb(206, 206, 206);"></path>
  </g>
  <rect x="192.285" y="276.271" width="46" height="25" rx="5.13" ry="5.13" fill="#3f3d56"></rect>
  <g transform="matrix(1, 0, 0, 1, -153.960587, 35.805122)">
    <path style="stroke: rgb(0, 0, 0); fill: rgb(250, 250, 250);" d="M 273.835 380.514 L 265.602 372.78 L 262.209 368.159 L 258.882 363.902 L 256.939 358.439 L 257.717 355.175 L 289.482 317.884 L 292.223 315.223 L 293.949 315.223 C 293.949 315.223 296.375 315.242 296.393 315.26 C 296.411 315.278 298.23 315.471 298.248 315.471 C 298.266 315.471 298.918 317.675 298.918 317.693 C 298.918 317.711 301.191 323.659 301.191 323.659 L 306.167 332.638 L 315.38 342.377 L 323.364 347.795 L 331.979 351.75 L 337.603 352.788 L 339.472 353.568 C 339.472 353.568 341.969 355.168 341.988 355.187 C 342.007 355.206 342.59 359.213 342.59 359.213 L 341.39 362.521 L 335.061 370.368 C 335.061 370.368 322.056 385.813 322.074 385.813 C 322.092 385.813 316.252 393.006 316.233 393.006 C 316.214 393.006 313.232 394.917 313.232 394.917 L 309.222 394.917 L 301.822 393.925 L 293.203 391.297 L 280.374 385.172 L 275.454 381.839 L 273.835 380.514 Z"></path>
    <path d="M 311.296 395.986 C 311.154 395.986 311.013 395.981 310.871 395.972 C 302.502 395.435 273.866 391.383 256.77 361.824 C 255.362 359.39 255.639 356.296 257.461 354.126 L 289.121 316.404 C 290.415 314.861 292.415 313.973 294.441 313.997 C 295.841 314.03 299.156 314.384 299.799 316.939 C 303.603 332.036 319.663 349.786 338.977 352.139 C 340.935 352.377 342.506 354.123 343.181 356.811 C 343.707 358.903 343.221 361.059 341.846 362.727 L 316.484 393.525 C 315.195 395.089 313.304 395.986 311.296 395.986 L 311.296 395.986 Z M 294.319 315.514 C 292.772 315.514 291.267 316.208 290.284 317.38 L 258.624 355.101 C 257.211 356.785 256.995 359.181 258.084 361.064 C 274.803 389.97 302.789 393.931 310.969 394.457 C 312.639 394.569 314.243 393.857 315.312 392.56 L 340.674 361.762 C 341.739 360.47 342.116 358.8 341.708 357.181 C 341.31 355.595 340.335 353.834 338.793 353.645 C 318.84 351.215 302.253 332.893 298.327 317.31 C 298.009 316.048 296.095 315.555 294.409 315.515 C 294.379 315.514 294.349 315.514 294.319 315.514 L 294.319 315.514 Z" fill="#3f3d56"></path>
    <path d="M 275.957 363.066 L 298.782 339.792 C 300.342 338.201 297.898 335.753 296.336 337.346 L 273.51 360.619 C 271.95 362.21 274.394 364.658 275.957 363.066 Z" fill="#e6e6e6"></path>
    <path d="M 289.733 369.622 C 296.033 363.976 301.507 357.438 305.99 350.265 C 307.173 348.371 304.181 346.632 303.002 348.518 C 298.668 355.454 293.376 361.718 287.287 367.176 C 285.625 368.665 288.079 371.105 289.733 369.622 L 289.733 369.622 L 289.733 369.622 Z" fill="#e6e6e6"></path>
    <path d="M 302.15 377.474 C 307.885 371.12 312.767 364.029 316.611 356.38 C 317.608 354.396 314.625 352.642 313.624 354.634 C 309.91 362.024 305.246 368.887 299.703 375.027 C 298.215 376.676 300.654 379.13 302.15 377.474 L 302.15 377.474 Z" fill="#e6e6e6"></path>
  </g>
  <g transform="matrix(1, 0, 0, 1, -8.728636, 202.887115)">
    <path id="path-1" d="M123.85295,205.94936c4.34915-3.59367,9.72872-4.26258,12.0153-1.49438,2.28658,2.7682,.6142,7.92447-3.73698,11.51883-1.71842,1.45964-3.76141,2.48653-5.95805,2.99474l-18.6198,14.99379-6.8499-8.8877,19.08307-13.83763c.91372-2.06202,2.30808-3.87516,4.06637-5.28765Z" style="fill: rgb(197, 141, 141);"></path>
    <path d="M16.2326,239.77936c-.00944-.66307-.00322-6.44713,4.27885-10.10294,4.91893-4.1995,11.85979-2.49972,14.29424-1.90355,5.62362,1.37718,6.08483,3.78959,11.36601,6.2683,9.8805,4.63743-2.4994,2.26379,3.3798,.77675,2.03505-.51473,31.31216-2.54515,38.59979-7.03056,14.17354-8.72353,23.83086-14.01349,23.83086-14.01349l6.31321,12.62642s-9.1289,12.69357-21.97706,22.09716c-13.17929,9.64592-19.76894,14.46893-29.78342,16.33239-.8624,.16048-22.07229,3.78187-39.15515-8.98085-3.89654-2.91112-11.03588-8.24498-11.14714-16.06965Z" style="fill: rgb(169, 223, 207);"></path>
    <circle cx="35.81649" cy="185.67486" r="21.99265" style="fill: rgb(197, 141, 141);"></circle>
    <g>
      <polygon points="217.816 325.123 198.091 301.939 187.91 314.135 202.605 336.364 217.182 338.279 217.816 325.123" style="fill: rgb(197, 141, 141);" transform="matrix(0.967466, -0.253002, 0.253002, 0.967466, -74.388182, 61.739207)"></polygon>
      <path d="M 91.576 284.558 C 92.896 284.666 97.091 285.495 101.1 283.317 C 103.836 281.83 105.24 279.618 105.713 278.915 C 111.594 270.19 134.163 256.582 154.417 255.746 C 159.005 255.555 162.023 256.081 164.768 257.494 C 168.659 259.498 170.213 262.368 175.151 269.094 C 177.851 272.773 180.841 276.238 183.574 279.893 C 199.578 301.292 205.644 302.971 205.024 309.832 C 204.337 317.442 196.028 324.664 190.506 323.831 C 188.244 323.489 187.369 321.936 184.347 318.79 C 175.488 309.568 171.823 311.272 165.517 304.208 C 158.152 295.961 159.117 289.124 155.274 288.86 C 151.712 288.615 150.198 294.448 142.591 302.197 C 139.111 305.743 136.633 307.369 129.083 312.545 C 99.678 332.7 99.209 334.116 93.276 335.724 C 90.679 336.427 72.251 341.419 65.688 333.476 C 55.414 321.045 79.683 283.581 91.576 284.558 Z" fill="#2f2e41" style=""></path>
      <path d="M 215.328 328.035 C 216.994 327.287 218.942 326.413 219.568 324.401 C 219.992 323.04 219.748 321.362 218.872 320.203 C 217.86 318.865 216.364 318.689 216.424 318.452 C 216.516 318.091 220.056 318.232 223.941 319.606 C 224.675 319.865 227.996 321.079 232.222 324.377 C 235.607 327.02 235.151 327.55 237.274 329.074 C 243.791 333.752 249.902 330.065 253.428 334.452 C 254.789 336.145 255.37 338.549 254.797 340.493 C 253.647 344.396 248.054 345.739 244.997 346.433 C 237.636 348.103 232.064 346.739 226.246 345.759 C 206.459 342.425 195.342 345.461 193.854 340.877 C 193.572 340.01 194.03 340.084 195.555 333.717 C 197.061 327.433 197.012 325.707 198.294 325.204 C 200.225 324.447 201.521 327.892 206.384 329.071 C 210.693 330.116 214.249 328.52 215.328 328.035 Z" fill="#2f2e41" transform="matrix(0.9951860308647157, -0.09800600260496141, 0.09800600260496141, 0.9951860308647157, -31.644673252902066, 23.513560246277905)"></path>
    </g>
    <g>
      <polygon points="167.78776 409.27485 162.06533 377.37247 145.54248 380.8986 147.02265 408.7683 159.79754 419.75133 167.78776 409.27485" style="fill: rgb(197, 141, 141);"></polygon>
      <path d="M85.1876,300.67759c1.03437,.83499,4.04422,3.89687,8.61693,4.32456,3.1207,.29189,5.5476-.77612,6.34237-1.10016,9.86016-4.02006,36.36378-2.73717,53.66232,7.97432,3.91739,2.42571,6.12517,4.56865,7.59796,7.30318,2.08836,3.87748,1.74096,7.16592,2.00574,15.60118,.14485,4.61413,.65006,9.21134,.83536,13.82403,1.08478,27.00503,5.165,31.83623,.73697,37.25285-4.91296,6.00981-15.93171,7.39707-20.04204,3.58429-1.6833-1.56144-1.52438-3.36089-2.23945-7.70732-2.09668-12.74399-6.1123-13.37756-7.3211-22.86924-1.41128-11.08171,3.28968-16.28586,.2498-18.67306-2.81902-2.21375-7.40373,1.83601-18.14054,4.06268-4.91292,1.01889-7.89899,.98932-17.12157,1.08406-35.91491,.369-37.11255,1.29501-42.95736-.69821-2.55722-.87208-20.70715-7.06164-21.62754-17.43758-1.44026-16.23716,40.08188-34.04923,49.40214-26.52558Z" fill="#2f2e41"></path>
      <path d="M159.11615,409.72161c1.79837,.31647,3.90115,.68652,5.54907-.62579,1.11506-.88797,1.85529-2.41356,1.78117-3.86518-.08551-1.6749-1.22503-2.66132-1.042-2.82318,.2787-.24646,3.12834,1.85768,5.57211,5.17601,.46116,.62619,2.52813,3.49574,4.17204,8.59791,1.3171,4.08786,.64262,4.27045,1.54344,6.72347,2.76521,7.52985,9.89266,7.91126,10.3469,13.52119,.17529,2.16508-.69427,4.48-2.25957,5.76669-3.14344,2.58393-8.52547,.55484-11.44413-.58775-7.02916-2.75176-10.87405-7.00882-15.13778-11.08716-14.50016-13.86979-25.4044-17.59987-24.06156-22.22846,.25415-.87602,.59124-.55798,5.42874-4.96936,4.77454-4.35399,5.70271-5.80966,7.04642-5.50591,2.02264,.45724,1.1604,4.03605,4.52206,7.74243,2.97899,3.28446,6.81783,3.96004,7.98309,4.16509Z" fill="#2f2e41"></path>
    </g>
    <path d="M38.81486,189.87923c.85618-3.06269-.2192-4.1788,.87688-5.55356,.00002-.00004,.44108-.55322,4.38439-2.04605h0c-1.16344-6.75042-.29231-7.89186-.29229-7.8919,1.00399-1.31553,3.0152-1.63355,4.38439-1.46146,2.89579,.36397,3.40837,2.98166,5.26127,2.92293,2.55961-.08114,5.62956-5.20482,4.67668-9.64566-.77729-3.62247-4.12881-6.31266-4.96897-5.84585-.83301,.46284-3.83172-1.5781-4.96897-1.16917-.77665,.27927-4.43236-.09227-5.26127,.29229-.90523,.41999-3.49763,3.03482-3.74548,2.70535-1.72237-2.28946-1.6857-3.0888-2.68496-3.58223-1.77067-.87434-3.69571,.74172-7.01502,2.33834-6.82959,3.28508-8.8294,1.32549-11.984,4.0921-1.59355,1.39756-2.44808,4.06851-4.0921,9.35336-2.29915,7.39081-3.44871,11.08621-2.33834,14.61463,1.13238,3.59835,2.79995,2.81517,5.26127,7.8919,2.73983,5.65125,1.79552,8.93605,4.38439,10.23024,2.00086,1.00026,5.21638,.36365,6.43044-1.46146,2.07861-3.12477-3.29393-7.35177-1.46146-12.27629,1.12484-3.02287,4.59478-5.31493,6.72273-4.67668,2.40606,.72167,2.58325,5.03573,4.0921,4.96897,1.29207-.05716,2.18914-3.2661,2.33834-3.7998Z" fill="#2f2e41"></path>
    <path d="M22.15418,210.9243c4.50049-5.04615,22.83197,.17676,24.55258,8.18419,.7077,3.29357-1.9049,4.68425-1.16917,8.47649,1.0761,5.54667,7.16909,5.16857,11.6917,10.81483,6.42075,8.016-.19392,15.85188,7.01502,29.22926,1.54044,2.85856,2.83881,5.26787,5.55356,7.59961,6.22959,5.35068,12.02717,3.51565,15.19922,8.47649,2.37209,3.70978,1.39747,8.28224,1.16917,9.35336-.93616,4.39206-3.47342,5.46222-5.26127,9.06107-2.97456,5.98761,.39336,10.38356,.58459,17.53756,.23927,8.95093-4.51735,21.35848-14.03005,25.42946-10.68707,4.57357-23.57658-3.00132-29.81385-10.52253-3.72182-4.488-4.8022-8.62788-6.43044-13.73775-7.27695-22.83729-11.38807-20.77183-16.95297-38.87492-6.3617-20.69512-7.61233-44.94052,0-52.61267,1.00898-1.01692,3.78571-3.36736,5.55356-7.59961,2.37887-5.69507,.32374-8.55598,2.33834-10.81483Z" style="fill: rgb(169, 223, 207);"></path>
    <g>
      <path id="path-2" d="M88.65331,328.39105c3.48927,4.43334,4.03014,9.82729,1.20837,12.04743-2.82177,2.22013-7.93683,.42567-11.42675-4.00971-1.41838-1.75263-2.39643-3.81945-2.85228-6.02755l-14.54698-18.97093,7.51668-5.73344,14.91146,18.50331c2.03972,.96247,3.81921,2.39954,5.18951,4.1909Z" style="fill: rgb(197, 141, 141);"></path>
      <path d="M35.37742,230.15543c.64719-.14454,6.31083-1.31867,10.76347,2.12736,5.11484,3.95855,4.86707,11.10022,4.78019,13.60509-.20073,5.78631-2.46827,6.73006-3.81723,12.40591-2.52378,10.61887,2.28253,20.4873,4.93792,25.93939,.91914,1.88721,3.87205,7.66186,9.7501,13.88094,11.43206,12.09534,21.6324,18.45987,21.6324,18.45987l-10.95803,9.74043s-17.45493-5.3202-29.2823-15.97929c-12.13217-10.9338-30.78935-49.61903-34.65703-59.04258-.33308-.81151,4.38498,12.38209,13.39349-6.94555,2.0548-4.40857,5.81969-12.48606,13.45703-14.19157Z" style="fill: rgb(169, 223, 207);"></path>
    </g>
  </g>
  <g transform="matrix(1, 0, 0, 1, -9.301527, 204.059601)">
    <ellipse cx="145.44339" cy="139.35715" rx="23.01268" ry="22.52779" style="fill: rgb(169, 223, 207);"></ellipse>
    <text style="fill: rgb(255, 255, 255); font-family: Montserrat; font-size: 24px; font-weight: 700; white-space: pre;" transform="matrix(0.95104, -0.309067, 0.309067, 0.95104, -36.505501, 51.398525)" x="133.382" y="148.022">5+</text>
  </g>
</svg>