<svg aria-hidden="true" version="1.1" xmlns="http://www.w3.org/2000/svg" xmlns:xlink="http://www.w3.org/1999/xlink">
<defs>
<svg xmlns="http://www.w3.org/2000/svg" id="icon-arrow-down" viewBox="0 0 256 256"><path d="M128,24A104,104,0,1,0,232,128,104.11,104.11,0,0,0,128,24Zm0,192a88,88,0,1,1,88-88A88.1,88.1,0,0,1,128,216Zm37.66-85.66a8,8,0,0,1,0,11.32l-32,32a8,8,0,0,1-11.32,0l-32-32a8,8,0,0,1,11.32-11.32L120,148.69V88a8,8,0,0,1,16,0v60.69l18.34-18.35A8,8,0,0,1,165.66,130.34Z"></path></svg>

<svg xmlns="http://www.w3.org/2000/svg" id="icon-instagram" viewBox="0 0 256 256"><path d="M128,80a48,48,0,1,0,48,48A48.05,48.05,0,0,0,128,80Zm0,80a32,32,0,1,1,32-32A32,32,0,0,1,128,160ZM176,24H80A56.06,56.06,0,0,0,24,80v96a56.06,56.06,0,0,0,56,56h96a56.06,56.06,0,0,0,56-56V80A56.06,56.06,0,0,0,176,24Zm40,152a40,40,0,0,1-40,40H80a40,40,0,0,1-40-40V80A40,40,0,0,1,80,40h96a40,40,0,0,1,40,40ZM192,76a12,12,0,1,1-12-12A12,12,0,0,1,192,76Z"></path></svg>

<svg xmlns="http://www.w3.org/2000/svg" id='icon-facebook' viewBox="0 0 256 256"><path d="M128,24A104,104,0,1,0,232,128,104.11,104.11,0,0,0,128,24Zm8,191.63V152h24a8,8,0,0,0,0-16H136V112a16,16,0,0,1,16-16h16a8,8,0,0,0,0-16H152a32,32,0,0,0-32,32v24H96a8,8,0,0,0,0,16h24v63.63a88,88,0,1,1,16,0Z"></path></svg>

<svg xmlns="http://www.w3.org/2000/svg" id="icon-tiktok" viewBox="0 0 256 256"><path d="M224,72a48.05,48.05,0,0,1-48-48,8,8,0,0,0-8-8H128a8,8,0,0,0-8,8V156a20,20,0,1,1-28.57-18.08A8,8,0,0,0,96,130.69V88a8,8,0,0,0-9.4-7.88C50.91,86.48,24,119.1,24,156a76,76,0,0,0,152,0V116.29A103.25,103.25,0,0,0,224,128a8,8,0,0,0,8-8V80A8,8,0,0,0,224,72Zm-8,39.64a87.19,87.19,0,0,1-43.33-16.15A8,8,0,0,0,160,102v54a60,60,0,0,1-120,0c0-25.9,16.64-49.13,40-57.6v27.67A36,36,0,1,0,136,156V32h24.5A64.14,64.14,0,0,0,216,87.5Z"></path></svg>

</defs>
</svg>