<svg id="why-image" viewBox="0 0 844.67538 595.26155" xmlns="http://www.w3.org/2000/svg" shape-rendering="geometricPrecision" text-rendering="geometricPrecision" class="stop-animation">

  <style><![CDATA[
  .stop-animation > .animated, .stop-animation > * > .animated {
    animation-play-state: paused !important;
  }

    #QUESTIONMARK {
      transform-origin: center;
  
      animation: QUESTIONMARK-ROTATE 5s 1s linear infinite normal forwards;
    }

    @keyframes QUESTIONMARK-ROTATE {
      10% {
        transform: rotateY(180deg)
      }

      20% {
        transform: rotateY(0)
      }
    
    }

    #BACKGROUNDPATH {
      transform-origin: center;
      animation: BACKGROUNDPATH-SCALE .3s linear 1 normal forwards;
    }

    @keyframes BACKGROUNDPATH-SCALE {

      100% {
        transform: scale(1)
      }
    }
  ]]>
  
  </style>

  <g id="BACKGROUNDPATH" class="animated" transform="scale(0)">
    <path d="M 706.199 591.416 C 731.934 583.687 759.293 575.628 779.703 557.255 C 797.94 540.837 810.253 515.766 802.697 491.143 C 795.157 466.571 772.573 450.187 749.256 442.038 C 736.031 437.416 722.195 434.852 708.364 432.837 C 693.329 430.648 678.228 428.854 663.134 427.127 C 602.016 420.137 540.668 415.867 479.09 414.316 C 448.706 413.551 418.327 413.57 387.938 414.011 C 360.798 414.405 332.216 414.395 307.039 402.86 C 287.46 393.89 269.691 377.571 264.235 356.127 C 257.938 331.372 269.553 306.163 286.215 288.235 C 294.998 278.785 305.263 270.831 315.852 263.517 C 327.339 255.583 339.227 248.211 351.372 241.329 C 375.293 227.782 400.302 216.252 426.139 206.861 C 438.885 202.226 451.82 198.228 464.867 194.539 C 475.884 191.424 486.935 188.305 497.583 184.062 C 518.166 175.858 537.744 161.962 542.977 139.18 C 547.937 117.589 539.574 94.15 524.912 78.11 C 507.949 59.553 482.373 51.418 457.852 50.102 C 430.324 48.624 403.43 55.514 377.555 64.258 C 349.959 73.584 322.957 84.307 294.777 91.861 C 266.833 99.344 238.348 104.639 209.581 107.697 C 195.499 109.197 180.991 110.89 166.825 109.742 C 154.953 108.78 143.141 105.288 134.391 96.862 C 126.888 89.638 122.419 79.708 123.956 69.23 C 124.235 67.327 127.126 68.136 126.848 70.028 C 124.978 82.783 133.648 94.536 144.333 100.557 C 156.681 107.515 171.707 107.525 185.454 106.729 C 215.263 104.928 244.871 100.648 273.969 93.933 C 302.561 87.403 330.133 78.067 357.673 68.094 C 383.829 58.623 410.57 49.378 438.513 47.327 C 462.759 45.547 488.265 49.079 509.387 61.75 C 527.951 72.886 541.602 91.457 545.952 112.768 C 550.202 133.593 544.315 154.553 528.552 169.085 C 512.23 184.132 489.851 190.564 468.995 196.489 C 442.543 204.003 416.658 212.787 391.603 224.192 C 366.206 235.72 341.85 249.413 318.803 265.12 C 296.556 280.322 274.602 299.451 267.566 326.571 C 264.289 339.204 264.894 352.603 270.378 364.536 C 275.254 375.146 283.284 384.071 292.639 390.954 C 314.96 407.379 343.092 410.751 370.054 411.087 C 400.335 411.463 430.617 410.441 460.909 410.939 C 522.641 411.952 584.247 415.709 645.727 422.211 C 661.133 423.842 676.518 425.644 691.885 427.618 C 705.706 429.394 719.574 431.159 733.163 434.313 C 757.326 439.921 780.837 450.705 795.855 471.191 C 802.52 480.071 806.65 490.594 807.802 501.637 C 808.854 513.161 806.032 524.706 800.822 534.958 C 789.29 557.648 767.688 572.081 744.749 581.562 C 732.462 586.641 719.717 590.488 706.997 594.309 C 705.144 594.865 704.352 591.971 706.2 591.416 L 706.199 591.416 Z" fill="#f2f2f2"></path>
    <circle cx="125.893" cy="69.5" r="24" fill="#f2f2f2"></circle>
    <circle cx="292.393" cy="115" r="24" fill="#f2f2f2"></circle>
    <circle cx="433.393" cy="24" r="24" fill="#f2f2f2"></circle>
    <circle cx="521.393" cy="126" r="24" fill="#f2f2f2"></circle>
    <circle cx="402.393" cy="244" r="24" fill="#f2f2f2"></circle>
    <circle cx="251.393" cy="301" r="24" fill="#f2f2f2"></circle>
    <circle cx="411.393" cy="390" r="24" fill="#f2f2f2"></circle>
    <circle cx="583.393" cy="440" r="24" fill="#f2f2f2"></circle>
    <circle cx="784.393" cy="429" r="24" fill="#f2f2f2"></circle>
  </g>

  <g id='QUESTIONMARK' class='animated'>
    <circle cx="431.393" cy="548" r="46" style="fill: #fbd69e;"></circle>
    <path d="M 426.465 68.003 C 354.573 68.511 295.709 126.933 294.688 198.82 C 294.679 199.483 294.674 204.15 294.675 210.254 C 294.676 228.89 309.782 243.998 328.419 244 L 328.419 244 C 347.077 243.996 362.196 228.861 362.18 210.202 C 362.176 206.05 362.174 203.176 362.174 203 C 362.164 153.732 415.491 122.929 458.163 147.554 C 499.712 171.531 501.089 231.005 460.695 256.879 L 460.706 256.894 C 460.706 256.894 412.678 287.813 398.035 330.229 L 398.048 330.232 C 395.473 338.921 394.168 347.937 394.174 357 C 394.174 360.725 394.393 393.321 394.817 419.778 C 395.125 438.77 410.612 454.004 429.607 454 L 429.607 454 C 448.908 453.999 464.52 438.29 464.401 418.989 C 464.254 394.76 464.174 366.548 464.174 364.5 C 464.174 338.455 489.3 312.505 509.938 295.583 C 533.704 276.096 550.806 249.54 557.675 219.583 C 559.195 213.416 560.033 207.1 560.174 200.75 C 560.174 127.059 500.154 67.471 426.465 68.003 Z" style="fill: #fbd69e;"></path>
    <path d="M 337.947 228.038 C 319.31 228.036 304.203 212.928 304.202 194.292 C 304.202 188.189 304.206 183.522 304.216 182.858 C 304.5 161.952 309.765 141.414 319.574 122.949 C 303.458 145.012 294.596 171.538 294.216 198.858 C 294.206 199.522 294.202 204.189 294.202 210.292 C 294.203 228.928 309.31 244.036 327.947 244.038 C 343.058 244.033 356.326 233.99 360.434 219.448 C 354.256 224.989 346.246 228.048 337.947 228.038 Z" fill="#3f3d56"></path>
    <path d="M 428.753 139.109 C 473.471 141.245 502.236 187.454 484.412 228.522 C 516.35 191.013 495.707 132.995 447.253 124.09 C 417.972 118.709 388.847 134.23 376.986 161.537 C 389.826 146.432 408.952 138.146 428.753 139.109 Z" fill="#3f3d56"></path>
    <path d="M 439.135 438.038 C 420.139 438.043 404.653 422.809 404.345 403.816 C 403.921 377.36 403.702 344.764 403.702 341.038 C 403.696 331.976 405.001 322.96 407.575 314.27 L 407.563 314.267 C 409.084 309.906 410.92 305.661 413.057 301.567 C 406.496 310.311 401.274 319.984 397.563 330.267 L 397.575 330.27 C 395.001 338.96 393.696 347.976 393.702 357.038 C 393.702 360.764 393.921 393.36 394.345 419.816 C 394.653 438.809 410.139 454.043 429.135 454.038 C 444.597 454.036 458.203 443.832 462.536 428.99 C 456.139 434.823 447.791 438.051 439.135 438.038 Z" fill="#3f3d56"></path>
    <path d="M 421.258 582.78 C 393.204 570.562 384.681 534.866 404.188 511.291 C 375.591 532.171 380.32 576.178 412.701 590.504 C 431.542 598.84 453.627 593.631 466.757 577.755 C 453.562 587.399 436.239 589.312 421.258 582.78 Z" fill="#3f3d56"></path>
  </g>
  
  <path d="M1021.147,747.63078H178.853a1.19069,1.19069,0,0,1,0-2.38137h842.294a1.19068,1.19068,0,0,1,0,2.38137Z" transform="translate(-177.66231 -152.36922)" fill="#3f3d56"></path>
  <circle cx="628.44885" cy="242.9959" r="30" fill="#2f2e41"></circle>
  <polygon points="573.012 582.129 560.753 582.129 554.92 534.841 573.015 534.841 573.012 582.129" fill="#a0616a"></polygon>
  <path d="M551.99554,578.62562h23.64387a0,0,0,0,1,0,0v14.88687a0,0,0,0,1,0,0H537.10868a0,0,0,0,1,0,0v0A14.88686,14.88686,0,0,1,551.99554,578.62562Z" fill="#2f2e41"></path>
  <polygon points="668.012 582.129 655.753 582.129 649.92 534.841 668.015 534.841 668.012 582.129" fill="#a0616a"></polygon>
  <path d="M646.99554,578.62562h23.64387a0,0,0,0,1,0,0v14.88687a0,0,0,0,1,0,0H632.10868a0,0,0,0,1,0,0v0A14.88686,14.88686,0,0,1,646.99554,578.62562Z" fill="#2f2e41"></path>
  <circle cx="623.88979" cy="248.61007" r="24.56103" fill="#a0616a"></circle>
  <path d="M816.19123,504.7751l10.98975-25.25a31.38253,31.38253,0,0,0-6.94971-35.6,31.87322,31.87322,0,0,0-3.07031-2.67,30.93522,30.93522,0,0,0-18.98975-6.57,32.179,32.179,0,0,0-13.3999,2.98c-.36035.16-.71.33-1.07031.5-.68994.33-1.36963.69-2.02979,1.06a31.67823,31.67823,0,0,0-15.70019,23.88l-4.8501,40.64c-1.21973,3.19-44.73975,118.39-29.51953,206.34a4.46692,4.46692,0,0,0,3.81982,3.67l15.43018,2.1a4.49661,4.49661,0,0,0,5.00976-3.53l25.89014-123.41a3.50323,3.50323,0,0,1,6.79981-.23l36.58007,129.78a4.47129,4.47129,0,0,0,4.31006,3.28,5.12184,5.12184,0,0,0,.87012-.08l18.84961-3.63a4.471,4.471,0,0,0,3.63037-4.81C850.02131,682.3351,835.3011,527.60512,816.19123,504.7751Z" transform="translate(-177.66231 -152.36922)" fill="#2f2e41"></path>
  <path d="M706.10166,421.41909A10.05576,10.05576,0,0,0,716.696,432.6225l13.72894,32.99236,10.385-15.3943-14.62937-28.97a10.11027,10.11027,0,0,0-20.07892.16852Z" transform="translate(-177.66231 -152.36922)" fill="#a0616a"></path>
  <path d="M800.19025,537.99553a10.05577,10.05577,0,0,0,8.42651-12.91316l28.88533-21.03846-17.39036-6.51224-24.76387,20.97687a10.11028,10.11028,0,0,0,4.84239,19.487Z" transform="translate(-177.66231 -152.36922)" fill="#a0616a"></path>
  <path d="M753.10188,487.61024a17.05692,17.05692,0,0,1-3.29834-.32519,16.30539,16.30539,0,0,1-11.94751-9.61621l-19.23438-23.45313a4.50075,4.50075,0,0,1,1.11109-6.68066l13.68432-8.4707a4.50007,4.50007,0,0,1,6.21533,1.49023l13.5564,22.334L779.15022,443.702A9.72146,9.72146,0,0,1,790.46,459.26356l-25.91186,23.63672A16.25271,16.25271,0,0,1,753.10188,487.61024Z" transform="translate(-177.66231 -152.36922)" fill="#2f2e41"></path>
  <path d="M823.252,522.8827c-.03515,0-.07055,0-.10571-.001a4.50783,4.50783,0,0,1-3.31079-1.57031l-12.16626-14.19336a4.49979,4.49979,0,0,1,.92041-6.67286l22.78149-15.1875-20.63842-24.8125a9.721,9.721,0,0,1,14.8872-12.18261l25.0835,24.51269a16.52481,16.52481,0,0,1-3.67529,26.94043l-20.50122,21.75391A4.50742,4.50742,0,0,1,823.252,522.8827Z" transform="translate(-177.66231 -152.36922)" fill="#2f2e41"></path>
  <path d="M795.30707,470.58358a4.63212,4.63212,0,0,1-.584-.03711,4.46111,4.46111,0,0,1-3.71045-3.06885l-9.14234-28.02929a3.08255,3.08255,0,0,1,1.594-3.72461l.29663-.14014c.269-.12793.5354-.25439.80737-.37549a32.57412,32.57412,0,0,1,13.603-3.023,31.327,31.327,0,0,1,17.16138,5.15674,3.13007,3.13007,0,0,1,.90136,4.29443L799.08393,468.504A4.45513,4.45513,0,0,1,795.30707,470.58358Z" transform="translate(-177.66231 -152.36922)" fill="#e6e6e6"></path>
  <circle cx="652.1011" cy="219.78616" r="9.81668" fill="#2f2e41"></circle>
  <path d="M796.11115,361.36513h0a26,26,0,0,0-26,25.99994v11.00006h13.5293l6.4707-11,1.94141,11h41.05859l-11-11.00006A26,26,0,0,0,796.11115,361.36513Z" transform="translate(-177.66231 -152.36922)" fill="#2f2e41"></path>
  <path d="M834.80883,365.43121a15.15,15.15,0,0,1,16.48081-10.39558c6.256,1.04586,11.20228,6.07455,14.14944,11.69107s4.30806,11.90252,6.28935,17.92793,4.79124,12.08362,9.79306,15.984,12.67721,4.9584,17.58966.94607a20.11809,20.11809,0,0,1-37.47706,7.18124c-2.59206-4.61172-3.26121-10.01684-4.02988-15.251s-1.7674-10.6498-4.86211-14.94043-8.88772-7.09293-13.80374-5.13859Z" transform="translate(-177.66231 -152.36922)" fill="#2f2e41"></path>
  <polygon points="126.541 582.585 138.8 582.584 144.633 535.296 126.538 535.297 126.541 582.585" fill="#ffb8b8"></polygon>
  <path d="M301.576,731.45065H340.1067a0,0,0,0,1,0,0v14.88687a0,0,0,0,1,0,0H316.46283A14.88686,14.88686,0,0,1,301.576,731.45066v0A0,0,0,0,1,301.576,731.45065Z" transform="translate(464.05409 1325.40429) rotate(179.99738)" fill="#2f2e41"></path>
  <polygon points="82.541 582.585 94.8 582.584 100.633 535.296 82.538 535.297 82.541 582.585" fill="#ffb8b8"></polygon>
  <path d="M257.576,731.45065H296.1067a0,0,0,0,1,0,0v14.88687a0,0,0,0,1,0,0H272.46283A14.88686,14.88686,0,0,1,257.576,731.45066v0A0,0,0,0,1,257.576,731.45065Z" transform="translate(376.05409 1325.4063) rotate(179.99738)" fill="#2f2e41"></path>
  <path d="M270.91659,720.41068l-11.975-.62988a4.6735,4.6735,0,0,1-4.41851-4.967l14.31268-158.46594,65.911,17.78562,6.35023-1.73241L321.23868,712.68583a4.69622,4.69622,0,0,1-4.35816,3.94458l-12.9089.60147a4.67413,4.67413,0,0,1-4.93149-4.79557l2.339-84.19641a1.55813,1.55813,0,0,0-3.0832-.36007L275.739,716.69228a4.64568,4.64568,0,0,1-4.56913,3.7255C271.086,720.41778,271.00154,720.41575,270.91659,720.41068Z" transform="translate(-177.66231 -152.36922)" fill="#2f2e41"></path>
  <circle cx="128.74202" cy="249.75879" r="24.56103" fill="#ffb8b8"></circle>
  <path d="M265.51193,474.28693l2.70056,58.26748.97625,21.19852a4.64221,4.64221,0,0,0,3.07432,4.17534l63.336,22.94342a4.47742,4.47742,0,0,0,1.59954.28045,4.64358,4.64358,0,0,0,4.66371-4.7881L339.2657,471.5969A36.93044,36.93044,0,0,0,308.522,435.91974c-.61263-.09345-1.23592-.18695-1.8592-.27006a36.24947,36.24947,0,0,0-29.165,9.44122,37.23612,37.23612,0,0,0-11.9859,29.196Z" transform="translate(-177.66231 -152.36922)" fill="#ccc"></path>
  <path d="M365.85452,569.24512a10.06355,10.06355,0,0,1-5.36877-15.22659l-21.478-28.56,18.53424-1.14707,17.55439,27.29693a10.111,10.111,0,0,1-9.24184,17.63673Z" transform="translate(-177.66231 -152.36922)" fill="#ffb8b8"></path>
  <path d="M350.75332,548.85022a4.64437,4.64437,0,0,1-2.54106-2.51848L315.854,469.2374a12.4634,12.4634,0,1,1,22.98438-9.64693l32.3582,77.09534a4.679,4.679,0,0,1-2.50048,6.11822l-14.36542,6.029a4.64165,4.64165,0,0,1-3.57741.01724Z" transform="translate(-177.66231 -152.36922)" fill="#ccc"></path>
  <path d="M298.50776,546.13086,329.587,486.62205a4.87826,4.87826,0,0,1,6.57494-2.06344l45.11152,23.5601a4.87826,4.87826,0,0,1,2.06343,6.57494l-31.07927,59.50881a4.87827,4.87827,0,0,1-6.57494,2.06344L300.5712,552.7058A4.87826,4.87826,0,0,1,298.50776,546.13086Z" transform="translate(-177.66231 -152.36922)" fill="#3f3d56"></path>
  <path d="M319.35062,518.94278a10.06358,10.06358,0,0,0-15.517-4.46026l-29.77845-19.75406-.05061,18.56963L302.2904,529.21a10.111,10.111,0,0,0,17.06022-10.26718Z" transform="translate(-177.66231 -152.36922)" fill="#ffb8b8"></path>
  <path d="M281.7006,523.11883l-24.33677-19.27776a17.16326,17.16326,0,0,1-7.82343-27.13518l22.09715-28.95951a10.096,10.096,0,0,1,17.1296,10.28435l-17.48384,28.6,25.694,12.18686a4.67363,4.67363,0,0,1,1.94814,6.71958l-10.37175,16.41406a4.682,4.682,0,0,1-3.16671,2.1111c-.02565.00448-.05149.00846-.0773.0123A4.69555,4.69555,0,0,1,281.7006,523.11883Z" transform="translate(-177.66231 -152.36922)" fill="#ccc"></path>
  <path d="M287.84537,418.57447a2.13479,2.13479,0,0,1,1.85636-2.81905,4.93046,4.93046,0,0,1,3.4761,1.71495,13.8334,13.8334,0,0,0,3.07115,2.63711c1.18812.59889,2.79953.51354,3.47685-.62824.63605-1.07221.20023-2.508-.18482-3.75347a36.90711,36.90711,0,0,1-1.62991-9.77c-.11092-3.70032.41115-7.562,2.45972-10.44807,2.64387-3.72475,7.37142-5.13883,11.84544-5.0363s8.87547,1.48362,13.30713,2.35665c1.52992.30139,3.32826.4555,4.35153-.73025,1.08805-1.26082.68844-3.3014.22563-5.00376-1.20094-4.41743-2.475-8.98461-5.26525-12.55224a18.89839,18.89839,0,0,0-12.06081-6.79014,28.93848,28.93848,0,0,0-13.46236,1.52838,36.09628,36.09628,0,0,0-17.68285,12.3186,29.23592,29.23592,0,0,0-5.57809,21.60019,26.66712,26.66712,0,0,0,9.88579,16.85462Z" transform="translate(-177.66231 -152.36922)" fill="#2f2e41"></path>
</svg>